<svg width="101" height="102" viewBox="0 0 101 102" fill="none" xmlns="http://www.w3.org/2000/svg">
<path d="M28.8311 19.031C45.8708 10.1967 53.4695 21.1776 68.6671 37.5252C83.8647 53.8727 91.6937 55.0286 82.2528 74.8438C72.8119 94.6589 21.923 88.8794 17.2409 72.4494C12.5589 56.0193 11.7913 27.8652 28.8311 19.031Z" fill="#F0E3CA" fill-opacity="0.76"/>
<path d="M62.7324 13.8399C80.2009 21.7928 76.2521 34.5493 72.7718 56.5969C69.2914 78.6444 73.2146 85.5175 51.7974 90.3212C30.3803 95.1248 3.51495 51.5205 13.5512 37.6951C23.5874 23.8697 45.2638 5.88706 62.7324 13.8399Z" fill="#FF8303" fill-opacity="0.82"/>
<path d="M62.0547 57.7656C62.1484 58.2812 62.1953 58.7578 62.1953 59.1953C62.1953 59.6797 62.1484 60.1172 62.0547 60.5078C61.9609 60.8828 61.8516 61.2109 61.7266 61.4922C61.6172 61.7578 61.5078 61.9766 61.3984 62.1484C61.3047 62.3047 61.25 62.3906 61.2344 62.4062L61.0469 62.6641L60.7188 62.6172C60.5 62.5859 60.2812 62.5703 60.0625 62.5703C59.8438 62.5703 59.625 62.5703 59.4062 62.5703C59.625 63.3359 59.8984 64.0781 60.2266 64.7969C60.5547 65.5156 60.9219 66.2109 61.3281 66.8828L61.5859 67.2578L61.2812 67.6094C61.2656 67.625 61.1797 67.7109 61.0234 67.8672C60.8828 68.0078 60.6641 68.1797 60.3672 68.3828C60.0703 68.5703 59.6875 68.7734 59.2188 68.9922C58.7656 69.2109 58.2266 69.3906 57.6016 69.5312C57.3047 69.6094 57.0078 69.6719 56.7109 69.7188C56.4297 69.75 56.1484 69.7656 55.8672 69.7656C55.4609 69.7656 55.0859 69.7344 54.7422 69.6719C54.4141 69.6094 54.1328 69.5391 53.8984 69.4609C53.6641 69.3672 53.4766 69.2891 53.3359 69.2266C53.2109 69.1641 53.1406 69.1328 53.125 69.1328L52.7969 68.9453L52.8438 68.5703C52.8438 68.3672 52.8516 68.1719 52.8672 67.9844C52.8828 67.7969 52.8906 67.6016 52.8906 67.3984C52.8906 66.3203 52.7969 65.25 52.6094 64.1875C52.5469 64.25 52.4922 64.2812 52.4453 64.2812L52.1172 64.375C51.1328 64.375 50.125 64.4375 49.0938 64.5625C48.0625 64.6875 47.0391 64.9141 46.0234 65.2422V65.9688C46.0234 66.6406 46.0703 67.3125 46.1641 67.9844L46.2109 68.2188L46.0703 68.4062C46.0547 68.4219 45.9766 68.5078 45.8359 68.6641C45.6953 68.8203 45.4766 68.9922 45.1797 69.1797C44.8828 69.3672 44.5078 69.5391 44.0547 69.6953C43.6016 69.8359 43.0547 69.9062 42.4141 69.9062C41.1641 69.9062 40.1719 69.7266 39.4375 69.3672C38.7188 69.0078 38.1641 68.6016 37.7734 68.1484C37.3203 67.6328 37.0156 67.0469 36.8594 66.3906L36.8125 66.2031L36.9531 66.0156C37.75 64.7969 38.3359 63.5 38.7109 62.125C39.1016 60.7344 39.2969 59.2344 39.2969 57.625V56.8047L39.3906 56.5234C40 55.3047 40.4453 54.0938 40.7266 52.8906C41.0234 51.6719 41.1719 50.4453 41.1719 49.2109C41.1719 48.8984 41.1641 48.5859 41.1484 48.2734C41.1328 47.9609 41.1094 47.6484 41.0781 47.3359L41.0312 47.1016L41.1719 46.9141C42.6719 44.6172 43.4219 42.1328 43.4219 39.4609C43.4219 39.2266 43.4141 38.9844 43.3984 38.7344C43.3828 38.4688 43.3594 38.2031 43.3281 37.9375V37.6562L43.5391 37.4453C43.5547 37.4297 43.6328 37.375 43.7734 37.2812C43.9297 37.1719 44.1406 37.0625 44.4062 36.9531C44.6719 36.8281 44.9922 36.7188 45.3672 36.625C45.7578 36.5312 46.2031 36.4844 46.7031 36.4844C47.6719 36.4844 48.4922 36.6328 49.1641 36.9297C49.8516 37.2266 50.4062 37.5547 50.8281 37.9141C51.25 38.2734 51.5547 38.6016 51.7422 38.8984C51.9453 39.1953 52.0547 39.3516 52.0703 39.3672L52.2109 39.6719L52.0703 39.9531C52.0078 40.0156 51.9766 40.0625 51.9766 40.0938H52.3047C52.9922 40.0938 53.5312 40.1406 53.9219 40.2344C54.3281 40.3281 54.5469 40.375 54.5781 40.375L54.8594 40.5859L54.8125 40.9141C54.7812 41.1016 54.7656 41.2891 54.7656 41.4766C54.7656 41.6484 54.7656 41.8281 54.7656 42.0156C54.7656 44.7969 55.4219 47.3438 56.7344 49.6562L56.8281 49.9375V50.5703C56.8281 51.3828 56.8594 52.1641 56.9219 52.9141C56.9844 53.6484 57.1094 54.3516 57.2969 55.0234C57.6094 54.8984 57.9141 54.7656 58.2109 54.625C58.5078 54.4844 58.7969 54.3281 59.0781 54.1562L59.3125 54.0156L59.6172 54.1094C59.6328 54.125 59.7344 54.1953 59.9219 54.3203C60.125 54.4453 60.3516 54.6484 60.6016 54.9297C60.8672 55.2109 61.1328 55.5859 61.3984 56.0547C61.6797 56.5078 61.8984 57.0781 62.0547 57.7656ZM50.875 39.6719C50.7812 39.5312 50.625 39.3516 50.4062 39.1328C50.1875 38.9141 49.9062 38.7031 49.5625 38.5C49.2344 38.2812 48.8281 38.0938 48.3438 37.9375C47.875 37.7812 47.3281 37.7031 46.7031 37.7031C46.1562 37.7031 45.7031 37.7578 45.3438 37.8672C44.9844 37.9766 44.7188 38.0781 44.5469 38.1719C44.5781 38.3906 44.5938 38.6094 44.5938 38.8281C44.5938 39.0312 44.5938 39.2422 44.5938 39.4609C44.5938 40.7422 44.4375 41.9609 44.125 43.1172C43.8125 44.2734 43.3594 45.4141 42.7656 46.5391C42.8906 46.5391 43.0078 46.5312 43.1172 46.5156C43.2266 46.4844 43.3438 46.4688 43.4688 46.4688C44.0781 46.4688 44.625 46.5312 45.1094 46.6562C45.5938 46.7812 46.0078 46.9219 46.3516 47.0781C46.7109 47.2344 46.9922 47.3828 47.1953 47.5234C47.3984 47.6484 47.5078 47.7188 47.5234 47.7344C47.6797 47.8438 47.7578 47.9688 47.7578 48.1094C47.7578 48.2812 47.6953 48.4062 47.5703 48.4844C47.4609 48.5625 47.3438 48.6016 47.2188 48.6016C47.1094 48.6016 47.0312 48.5625 46.9844 48.4844C46.9688 48.4688 46.875 48.4219 46.7031 48.3438C46.5469 48.25 46.3203 48.1562 46.0234 48.0625C45.7422 47.9531 45.3984 47.8594 44.9922 47.7812C44.6016 47.6875 44.1641 47.6406 43.6797 47.6406C43.2578 47.6406 42.8047 47.6875 42.3203 47.7812C42.3203 48 42.3281 48.2109 42.3438 48.4141C42.3594 48.6016 42.3672 48.8047 42.3672 49.0234C42.3672 51.4922 41.8438 53.8906 40.7969 56.2188C41.2344 56.25 41.75 56.3281 42.3438 56.4531C42.9375 56.5625 43.5078 56.7031 44.0547 56.875C44.6016 57.0469 45.0625 57.2422 45.4375 57.4609C45.8281 57.6641 46.0234 57.875 46.0234 58.0938C46.0234 58.2344 45.9766 58.3438 45.8828 58.4219C45.7891 58.5 45.6797 58.5391 45.5547 58.5391C45.4922 58.5391 45.4453 58.5312 45.4141 58.5156C45.3828 58.4844 45.3438 58.4688 45.2969 58.4688C44.7188 58.1562 43.9922 57.9062 43.1172 57.7188C42.2422 57.5156 41.375 57.4141 40.5156 57.4141C40.5156 59.1641 40.3125 60.7734 39.9062 62.2422C39.5156 63.6953 38.8984 65.0938 38.0547 66.4375C38.1016 66.5469 38.2031 66.7344 38.3594 67C38.5156 67.25 38.7578 67.5078 39.0859 67.7734C39.4297 68.0234 39.8672 68.25 40.3984 68.4531C40.9453 68.6562 41.6172 68.7578 42.4141 68.7578C43.1641 68.7578 43.7422 68.6484 44.1484 68.4297C44.5547 68.2109 44.8281 68.0312 44.9688 67.8906C44.9219 67.5781 44.8906 67.2656 44.875 66.9531C44.875 66.6406 44.875 66.3281 44.875 66.0156C44.875 64.6094 45.0469 63.2578 45.3906 61.9609C45.7344 60.6484 46.2656 59.3594 46.9844 58.0938C46.8906 57.4688 46.8438 56.8438 46.8438 56.2188C46.8438 54.9219 47.0078 53.6328 47.3359 52.3516C47.6797 51.0703 48.1875 49.75 48.8594 48.3906C48.8281 48.2031 48.8125 48.0156 48.8125 47.8281C48.8125 47.6406 48.8125 47.4453 48.8125 47.2422C48.8125 45.9453 48.9766 44.6641 49.3047 43.3984C49.6484 42.1328 50.1719 40.8906 50.875 39.6719ZM52.0234 63.2266C53.1016 62.6328 54.2344 62.1797 55.4219 61.8672C56.625 61.5547 57.875 61.3984 59.1719 61.3984C59.3906 61.3984 59.6094 61.3984 59.8281 61.3984C60.0469 61.3984 60.2812 61.4141 60.5312 61.4453C60.625 61.2734 60.7422 61 60.8828 60.625C61.0234 60.2344 61.0938 59.7734 61.0938 59.2422C61.0938 58.6641 61.0234 58.1484 60.8828 57.6953C60.7422 57.2266 60.5703 56.8281 60.3672 56.5C60.1797 56.1719 59.9844 55.9141 59.7812 55.7266C59.5781 55.5234 59.4219 55.3828 59.3125 55.3047C57.0938 56.5547 54.7891 57.1797 52.3984 57.1797C52.2109 57.1797 52.0312 57.1797 51.8594 57.1797C51.6875 57.1797 51.5156 57.1641 51.3438 57.1328C51.7031 57.8047 51.9453 58.4453 52.0703 59.0547C52.1953 59.6484 52.2578 60.1641 52.2578 60.6016C52.2578 60.9766 52.2422 61.2734 52.2109 61.4922C52.1797 61.6953 52.1328 61.8516 52.0703 61.9609C52.0234 62.0547 51.9609 62.1172 51.8828 62.1484C51.8047 62.1641 51.7266 62.1719 51.6484 62.1719C51.5234 62.1719 51.4219 62.1328 51.3438 62.0547C51.2812 61.9766 51.25 61.875 51.25 61.75V61.1172C51.25 60.9297 51.2344 60.6953 51.2031 60.4141C51.1875 60.1172 51.1328 59.8047 51.0391 59.4766C50.9609 59.1328 50.8438 58.7734 50.6875 58.3984C50.5312 58.0078 50.3203 57.6172 50.0547 57.2266C49.8828 57.3984 49.6094 57.5547 49.2344 57.6953C48.8594 57.8359 48.4922 57.9531 48.1328 58.0469C48.1328 58.0781 48.1406 58.0938 48.1562 58.0938C48.1719 58.0938 48.1797 58.1094 48.1797 58.1406L48.2266 58.3281L48.0859 58.5391C47.5547 59.3984 47.125 60.2812 46.7969 61.1875C46.4844 62.0938 46.2578 63.0312 46.1172 64C47.1484 63.6875 48.1641 63.4844 49.1641 63.3906C50.1797 63.2812 51.1328 63.2266 52.0234 63.2266ZM54.6719 50.1719C54.6406 50.2969 54.5703 50.3984 54.4609 50.4766C54.3672 50.5391 54.2734 50.5703 54.1797 50.5703C54.1484 50.5703 54.1172 50.5625 54.0859 50.5469C54.0547 50.5469 54.0156 50.5469 53.9688 50.5469C53.9375 50.5312 53.8984 50.5234 53.8516 50.5234C53.5391 50.5234 53.1016 50.5938 52.5391 50.7344C51.9766 50.8594 51.4062 51.1406 50.8281 51.5781C50.7969 51.5781 50.7734 51.5859 50.7578 51.6016C50.7422 51.6172 50.7188 51.625 50.6875 51.625C51.3438 53.1719 51.8359 54.6406 52.1641 56.0312H52.3047C53.6641 56.0312 54.9766 55.8359 56.2422 55.4453C56.0234 54.6328 55.8672 53.7812 55.7734 52.8906C55.6797 52 55.6328 51.0625 55.6328 50.0781C54.2578 47.5625 53.5703 44.8906 53.5703 42.0625C53.5703 41.9375 53.5781 41.8125 53.5938 41.6875C53.6094 41.5469 53.6172 41.3984 53.6172 41.2422C53.5703 41.2109 53.4453 41.1875 53.2422 41.1719C53.0547 41.1562 52.8281 41.1484 52.5625 41.1484C52.3594 41.1484 52.1641 41.1484 51.9766 41.1484C51.7891 41.1484 51.5938 41.1641 51.3906 41.1953C50.8906 42.2266 50.5234 43.25 50.2891 44.2656C50.0703 45.2812 49.9609 46.3047 49.9609 47.3359C49.9609 47.5391 49.9609 47.7344 49.9609 47.9219C49.9609 48.1094 49.9766 48.2969 50.0078 48.4844L50.0547 48.6484L49.9609 48.7891C49.9453 48.8203 49.9375 48.8359 49.9375 48.8359H49.9141C50.0078 49.1797 50.1094 49.5391 50.2188 49.9141C50.3281 50.2891 50.3828 50.5078 50.3828 50.5703C50.9766 50.1797 51.5391 49.9297 52.0703 49.8203C52.6172 49.7109 53.0781 49.6562 53.4531 49.6562C54.0156 49.6562 54.3594 49.6953 54.4844 49.7734C54.6094 49.8359 54.6719 49.9531 54.6719 50.125V50.1719ZM53.7109 63.6719C53.8359 64.2656 53.9219 64.8594 53.9688 65.4531C54.0156 66.0312 54.0391 66.6172 54.0391 67.2109V68.2188C54.2266 68.3125 54.4844 68.3984 54.8125 68.4766C55.1406 68.5391 55.5234 68.5703 55.9609 68.5703C56.4609 68.5703 56.9375 68.5156 57.3906 68.4062C57.8438 68.2812 58.25 68.1406 58.6094 67.9844C58.9688 67.8281 59.2734 67.6641 59.5234 67.4922C59.7734 67.3203 59.9609 67.1797 60.0859 67.0703C59.6797 66.3516 59.3203 65.625 59.0078 64.8906C58.6953 64.1406 58.4297 63.3828 58.2109 62.6172C57.4141 62.6641 56.6406 62.7734 55.8906 62.9453C55.1406 63.1172 54.4141 63.3594 53.7109 63.6719ZM49.0938 50.6641C48.7344 51.6016 48.4688 52.5312 48.2969 53.4531C48.125 54.375 48.0391 55.2812 48.0391 56.1719V56.8047C48.7109 56.5703 49.3516 56.2969 49.9609 55.9844L50.3359 55.8906C50.4453 55.9219 50.5547 55.9453 50.6641 55.9609C50.7734 55.9766 50.875 55.9844 50.9688 55.9844C50.7969 55.3125 50.5781 54.6328 50.3125 53.9453C50.0625 53.2422 49.7656 52.5156 49.4219 51.7656L49.0938 50.6641Z" fill="#1C1B18"/>
</svg>
