<svg width="33" height="33" viewBox="0 0 33 33" fill="none" xmlns="http://www.w3.org/2000/svg">
<g clip-path="url(#clip0_10_267)">
<path d="M16.5 1.30984C7.661 1.30984 0.5 8.47684 0.5 17.3098C0.5 24.3829 5.084 30.3778 11.437 32.4928C12.24 32.6438 12.53 32.1488 12.53 31.7209C12.53 31.3408 12.521 30.3359 12.515 29.0018C8.062 29.9658 7.124 26.8508 7.124 26.8508C6.395 25.0069 5.343 24.5119 5.343 24.5119C3.895 23.5228 5.458 23.5439 5.458 23.5439C7.062 23.6528 7.906 25.1888 7.906 25.1888C9.33299 27.6368 11.65 26.9289 12.567 26.5168C12.707 25.4858 13.124 24.7769 13.578 24.3818C10.026 23.9808 6.291 22.6058 6.291 16.4748C6.291 14.7238 6.911 13.2978 7.936 12.1778C7.759 11.7769 7.217 10.1468 8.077 7.94284C8.077 7.94284 9.41604 7.51584 12.477 9.58386C13.7809 9.22919 15.1258 9.04733 16.477 9.04283C17.837 9.05182 19.196 9.2298 20.477 9.58386C23.52 7.51584 24.858 7.94284 24.858 7.94284C25.717 10.1468 25.175 11.7759 25.019 12.1778C26.034 13.2978 26.654 14.7248 26.654 16.4748C26.654 22.6198 22.914 23.9749 19.358 24.3658C19.914 24.8448 20.435 25.8298 20.435 27.3248C20.435 29.4648 20.415 31.1888 20.415 31.7098C20.415 32.1258 20.695 32.6258 21.519 32.4649C27.919 30.3718 32.498 24.3718 32.498 17.3088C32.498 8.47584 25.337 1.30884 16.498 1.30884L16.5 1.30984Z" fill="#F0E3CA"/>
</g>
<defs>
<clipPath id="clip0_10_267">
<rect width="32" height="32" fill="white" transform="translate(0.5 0.913818)"/>
</clipPath>
</defs>
</svg>
