<svg width="33" height="33" viewBox="0 0 33 33" fill="none" xmlns="http://www.w3.org/2000/svg">
<path d="M16.5 9.5292C15.0395 9.5292 13.6117 9.9623 12.3973 10.7737C11.1829 11.5852 10.2364 12.7385 9.67751 14.0878C9.11858 15.4372 8.97234 16.922 9.25728 18.3545C9.54222 19.787 10.2455 21.1028 11.2783 22.1355C12.311 23.1683 13.6269 23.8716 15.0593 24.1565C16.4918 24.4415 17.9766 24.2952 19.326 23.7363C20.6753 23.1774 21.8287 22.2309 22.6401 21.0165C23.4515 19.8021 23.8846 18.3744 23.8846 16.9138C23.8826 14.9559 23.1039 13.0788 21.7195 11.6944C20.335 10.3099 18.4579 9.53124 16.5 9.5292ZM16.5 21.8369C15.5263 21.8369 14.5745 21.5482 13.7649 21.0072C12.9553 20.4663 12.3243 19.6974 11.9517 18.7978C11.5791 17.8982 11.4816 16.9084 11.6715 15.9534C11.8615 14.9984 12.3304 14.1212 13.0189 13.4327C13.7074 12.7442 14.5846 12.2753 15.5396 12.0853C16.4945 11.8954 17.4844 11.9929 18.384 12.3655C19.2836 12.7381 20.0524 13.3691 20.5934 14.1787C21.1343 14.9883 21.4231 15.9401 21.4231 16.9138C21.4231 18.2195 20.9044 19.4717 19.9811 20.395C19.0579 21.3182 17.8057 21.8369 16.5 21.8369ZM23.8846 0.913818H9.11539C6.83119 0.916262 4.64126 1.82474 3.02609 3.43991C1.41092 5.05507 0.502443 7.24501 0.5 9.5292V24.2984C0.502443 26.5826 1.41092 28.7726 3.02609 30.3877C4.64126 32.0029 6.83119 32.9114 9.11539 32.9138H23.8846C26.1688 32.9114 28.3587 32.0029 29.9739 30.3877C31.5891 28.7726 32.4976 26.5826 32.5 24.2984V9.5292C32.4976 7.24501 31.5891 5.05507 29.9739 3.43991C28.3587 1.82474 26.1688 0.916262 23.8846 0.913818ZM30.0385 24.2984C30.0385 25.9305 29.3901 27.4958 28.236 28.6499C27.082 29.8039 25.5167 30.4523 23.8846 30.4523H9.11539C7.48328 30.4523 5.91803 29.8039 4.76396 28.6499C3.60989 27.4958 2.96154 25.9305 2.96154 24.2984V9.5292C2.96154 7.8971 3.60989 6.33185 4.76396 5.17778C5.91803 4.02371 7.48328 3.37536 9.11539 3.37536H23.8846C25.5167 3.37536 27.082 4.02371 28.236 5.17778C29.3901 6.33185 30.0385 7.8971 30.0385 9.5292V24.2984ZM26.3462 8.91382C26.3462 9.27895 26.2379 9.63589 26.035 9.93949C25.8322 10.2431 25.5438 10.4797 25.2065 10.6194C24.8692 10.7592 24.498 10.7957 24.1398 10.7245C23.7817 10.6533 23.4528 10.4774 23.1946 10.2192C22.9364 9.96106 22.7606 9.6321 22.6893 9.27399C22.6181 8.91587 22.6546 8.54467 22.7944 8.20733C22.9341 7.86999 23.1707 7.58166 23.4743 7.3788C23.7779 7.17594 24.1349 7.06766 24.5 7.06766C24.9896 7.06766 25.4592 7.26217 25.8054 7.60839C26.1516 7.95461 26.3462 8.42419 26.3462 8.91382Z" fill="#F0E3CA"/>
</svg>
