<svg width="307" height="53" viewBox="0 0 307 53" fill="none" xmlns="http://www.w3.org/2000/svg">
<path d="M30.0938 41.875L0.03125 29.3438V23L30.0938 10.4375V18.6875L11.5312 26.1562L30.0938 33.5938V41.875ZM57.0625 0.4375L42.0625 52.9688H32.5L47.5938 0.4375H57.0625ZM82.7812 1.40625L90.3125 52H76.8438L76.1875 42.9062H71.4688L70.6875 52H57.0625L63.75 1.40625H82.7812ZM75.8125 33.9375C75.1458 28.2083 74.4792 21.1354 73.8125 12.7188C72.4792 22.3854 71.6458 29.4583 71.3125 33.9375H75.8125ZM276.469 10.4375L306.531 22.9375V29.3125L276.469 41.875V33.625L295.031 26.1562L276.469 18.7188V10.4375Z" fill="#FF8303"/>
<path d="M105.5 5V11.5312H108.906V18.0938H105.5V40.2812C105.5 43.0104 105.635 44.5312 105.906 44.8438C106.198 45.1562 107.375 45.3125 109.438 45.3125V52H104.344C101.469 52 99.4167 51.8854 98.1875 51.6562C96.9583 51.4062 95.875 50.8542 94.9375 50C94 49.125 93.4167 48.1354 93.1875 47.0312C92.9583 45.9062 92.8438 43.2812 92.8438 39.1562V18.0938H90.125V11.5312H92.8438V5H105.5ZM124.312 1.40625V12.7812C125.396 11.7812 126.562 11.0312 127.812 10.5312C129.083 10.0312 130.438 9.78125 131.875 9.78125C134.083 9.78125 135.958 10.3438 137.5 11.4688C139.062 12.5938 140.01 13.8958 140.344 15.375C140.698 16.8333 140.875 19.5104 140.875 23.4062V52H128.25V22.8125C128.25 20.3958 128.125 18.8438 127.875 18.1562C127.646 17.4688 127.115 17.125 126.281 17.125C125.51 17.125 124.99 17.4792 124.719 18.1875C124.448 18.8958 124.312 20.3021 124.312 22.4062V52H111.688V1.40625H124.312ZM156.531 26.5938H144.688V23.8125C144.688 20.6042 145.052 18.1354 145.781 16.4062C146.531 14.6562 148.021 13.1146 150.25 11.7812C152.479 10.4479 155.375 9.78125 158.938 9.78125C163.208 9.78125 166.427 10.5417 168.594 12.0625C170.76 13.5625 172.062 15.4167 172.5 17.625C172.938 19.8125 173.156 24.3333 173.156 31.1875V52H160.875V48.3125C160.104 49.7917 159.104 50.9062 157.875 51.6562C156.667 52.3854 155.219 52.75 153.531 52.75C151.323 52.75 149.292 52.1354 147.438 50.9062C145.604 49.6562 144.688 46.9375 144.688 42.75V39.3438C144.688 36.2396 145.177 34.125 146.156 33C147.135 31.875 149.562 30.5625 153.438 29.0625C157.583 27.4375 159.802 26.3438 160.094 25.7812C160.385 25.2188 160.531 24.0729 160.531 22.3438C160.531 20.1771 160.365 18.7708 160.031 18.125C159.719 17.4583 159.188 17.125 158.438 17.125C157.583 17.125 157.052 17.4062 156.844 17.9688C156.635 18.5104 156.531 19.9375 156.531 22.25V26.5938ZM160.531 32.2812C158.51 33.7604 157.333 35 157 36C156.688 37 156.531 38.4375 156.531 40.3125C156.531 42.4583 156.667 43.8438 156.938 44.4688C157.229 45.0938 157.792 45.4062 158.625 45.4062C159.417 45.4062 159.927 45.1667 160.156 44.6875C160.406 44.1875 160.531 42.8958 160.531 40.8125V32.2812ZM206.406 10.5312V52H193.562L193.781 48.5625C192.906 49.9583 191.823 51.0104 190.531 51.7188C189.26 52.4062 187.792 52.75 186.125 52.75C184.229 52.75 182.656 52.4167 181.406 51.75C180.156 51.0833 179.229 50.1979 178.625 49.0938C178.042 47.9896 177.677 46.8438 177.531 45.6562C177.385 44.4479 177.312 42.0625 177.312 38.5V10.5312H189.938V38.75C189.938 41.9792 190.031 43.8958 190.219 44.5C190.427 45.1042 190.969 45.4062 191.844 45.4062C192.781 45.4062 193.333 45.0938 193.5 44.4688C193.688 43.8438 193.781 41.8333 193.781 38.4375V10.5312H206.406ZM222.219 26.5938H210.375V23.8125C210.375 20.6042 210.74 18.1354 211.469 16.4062C212.219 14.6562 213.708 13.1146 215.938 11.7812C218.167 10.4479 221.062 9.78125 224.625 9.78125C228.896 9.78125 232.115 10.5417 234.281 12.0625C236.448 13.5625 237.75 15.4167 238.188 17.625C238.625 19.8125 238.844 24.3333 238.844 31.1875V52H226.562V48.3125C225.792 49.7917 224.792 50.9062 223.562 51.6562C222.354 52.3854 220.906 52.75 219.219 52.75C217.01 52.75 214.979 52.1354 213.125 50.9062C211.292 49.6562 210.375 46.9375 210.375 42.75V39.3438C210.375 36.2396 210.865 34.125 211.844 33C212.823 31.875 215.25 30.5625 219.125 29.0625C223.271 27.4375 225.49 26.3438 225.781 25.7812C226.073 25.2188 226.219 24.0729 226.219 22.3438C226.219 20.1771 226.052 18.7708 225.719 18.125C225.406 17.4583 224.875 17.125 224.125 17.125C223.271 17.125 222.74 17.4062 222.531 17.9688C222.323 18.5104 222.219 19.9375 222.219 22.25V26.5938ZM226.219 32.2812C224.198 33.7604 223.021 35 222.688 36C222.375 37 222.219 38.4375 222.219 40.3125C222.219 42.4583 222.354 43.8438 222.625 44.4688C222.917 45.0938 223.479 45.4062 224.312 45.4062C225.104 45.4062 225.615 45.1667 225.844 44.6875C226.094 44.1875 226.219 42.8958 226.219 40.8125V32.2812ZM256.031 10.5312L255.812 14.3438C256.729 12.8229 257.844 11.6875 259.156 10.9375C260.49 10.1667 262.021 9.78125 263.75 9.78125C265.917 9.78125 267.688 10.2917 269.062 11.3125C270.438 12.3333 271.323 13.625 271.719 15.1875C272.115 16.7292 272.312 19.3125 272.312 22.9375V52H259.688V23.2812C259.688 20.4271 259.594 18.6875 259.406 18.0625C259.219 17.4375 258.698 17.125 257.844 17.125C256.948 17.125 256.385 17.4896 256.156 18.2188C255.927 18.9271 255.812 20.8438 255.812 23.9688V52H243.188V10.5312H256.031Z" fill="#F0E3CA"/>
</svg>
