<svg width="301" height="94" viewBox="0 0 301 94" fill="none" xmlns="http://www.w3.org/2000/svg">
<path d="M144.653 75.6121H147.627C149.329 75.6121 150.179 76.1935 150.179 77.3563C150.179 78.1885 149.88 78.8372 149.28 79.3023C148.692 79.7674 147.86 80 146.783 80H143.295C142.022 80 141.036 79.7368 140.339 79.2105C139.653 78.672 139.311 77.907 139.311 76.9156C139.311 76.2792 139.568 75.349 140.082 74.125L144.8 63.0727L141.257 66.873C140.412 67.791 139.611 68.25 138.852 68.25C137.86 68.25 137.218 67.5707 136.924 66.2121L136.41 63.9355L131.93 74.9879C130.388 78.7822 129.213 81.3586 128.405 82.7172C127.597 84.088 126.551 85.2753 125.266 86.2789C123.405 87.7232 121.269 88.4453 118.858 88.4453C116.288 88.4453 114.201 87.6314 112.598 86.0035C110.994 84.3879 110.193 82.2766 110.193 79.6695C110.193 76.2547 111.453 73.2499 113.975 70.6551C115.333 69.272 117.028 68.1582 119.06 67.3137C121.092 66.4569 123.093 66.0285 125.064 66.0285C126.067 66.0285 126.869 66.2427 127.469 66.6711C128.069 67.0995 128.368 67.6686 128.368 68.3785C128.368 69.1251 128.05 69.731 127.414 70.1961C127.047 70.4654 126.337 70.649 125.284 70.7469C122.848 70.9672 120.884 71.5241 119.391 72.4176C118.155 73.1642 117.169 74.1372 116.435 75.3367C115.713 76.5362 115.352 77.7908 115.352 79.1004C115.352 80.4957 115.707 81.5911 116.417 82.3867C117.126 83.1945 118.099 83.5984 119.336 83.5984C120.817 83.5984 122.102 82.962 123.191 81.6891C124.293 80.4284 125.498 78.1947 126.808 74.9879L134.097 57.0508C134.733 55.4719 135.59 54.6824 136.667 54.6824C137.352 54.6824 137.891 54.9027 138.283 55.3434C138.686 55.784 139.035 56.5551 139.329 57.6566L140.449 61.8793L145.957 56.4633C147.168 55.276 148.301 54.6824 149.353 54.6824C150.088 54.6824 150.706 54.9089 151.208 55.3617C151.722 55.8023 151.979 56.3409 151.979 56.9773C151.979 57.3813 151.881 57.8219 151.685 58.2992L151.263 59.3273L144.653 75.6121ZM166.618 75.9977H168.638C170.18 75.9977 170.951 76.5362 170.951 77.6133C170.951 78.3599 170.676 78.9474 170.125 79.3758C169.574 79.7919 168.815 80 167.848 80H165.498C164.446 80 163.73 79.59 163.35 78.7699C162.432 79.59 161.545 80 160.688 80H158.595C157.249 80 156.16 79.5227 155.327 78.568C154.507 77.601 154.097 76.3404 154.097 74.7859C154.097 72.4359 154.905 70.3368 156.521 68.4887C158.149 66.6283 159.985 65.698 162.029 65.698C163.595 65.698 164.74 66.2427 165.462 67.332C166.074 66.4141 166.875 65.9551 167.867 65.9551C168.405 65.9551 168.852 66.1264 169.207 66.4691C169.574 66.8118 169.758 67.2341 169.758 67.7359C169.758 68.0786 169.66 68.4887 169.464 68.966L169.262 69.4617L166.618 75.9977ZM159.954 76.0895H160.413C161.417 76.0895 162.084 75.6794 162.414 74.8594L163.699 71.6832C163.871 71.2671 163.956 70.9182 163.956 70.6367C163.956 70.3063 163.791 70.0186 163.461 69.7738C163.142 69.529 162.757 69.4066 162.304 69.4066C161.41 69.4066 160.541 69.9268 159.697 70.9672C158.852 72.0076 158.43 73.0846 158.43 74.1984C158.43 75.4591 158.938 76.0895 159.954 76.0895ZM178.137 69.9758L177.513 71.518C176.95 72.8888 176.215 73.5742 175.31 73.5742C174.759 73.5742 174.3 73.409 173.933 73.0785C173.566 72.748 173.382 72.338 173.382 71.8484C173.382 71.5669 173.517 71.0896 173.786 70.4164L175.86 65.2941C176.362 64.0579 177.072 63.4398 177.99 63.4398C178.896 63.4398 179.453 63.8682 179.661 64.725L179.808 65.2941C179.881 65.5879 179.991 65.7715 180.138 65.8449C180.285 65.9184 180.646 65.9551 181.221 65.9551H185.518C187.121 65.9551 187.923 66.5181 187.923 67.6441C187.923 69.1986 186.907 69.9758 184.875 69.9758L184.673 70.1594C182.727 72.0198 181.754 73.4579 181.754 74.4738C181.754 75.4897 182.317 75.9977 183.443 75.9977H185.756C187.311 75.9977 188.088 76.5362 188.088 77.6133C188.088 78.3721 187.812 78.9596 187.262 79.3758C186.723 79.7919 185.964 80 184.985 80H181.387C180.163 80 179.159 79.5777 178.376 78.7332C177.605 77.8887 177.219 76.7932 177.219 75.4469C177.219 74.5901 177.427 73.7578 177.843 72.95C178.259 72.1422 178.994 71.1508 180.046 69.9758H178.137ZM198.064 88.7758H200.084C201.638 88.7758 202.415 89.3266 202.415 90.4281C202.415 91.1747 202.14 91.75 201.589 92.1539C201.051 92.5701 200.286 92.7781 199.294 92.7781H195.898C195.066 92.7781 194.392 92.5701 193.878 92.1539C193.364 91.7378 193.107 91.1931 193.107 90.5199C193.107 90.0303 193.279 89.3633 193.621 88.5187L197.403 79.2105C196.742 79.7368 195.971 80 195.09 80C193.866 80 192.844 79.5349 192.024 78.6047C191.216 77.6622 190.812 76.4934 190.812 75.098C190.812 73.8129 191.1 72.491 191.675 71.1324C192.263 69.7738 193.009 68.66 193.915 67.791C195.384 66.3957 197.116 65.698 199.111 65.698C200.788 65.698 202.152 66.1815 203.205 67.1484C204.27 68.1031 204.802 69.3454 204.802 70.8754C204.802 71.7322 204.564 72.7419 204.086 73.9047L198.064 88.7758ZM199.056 75.1531L200.323 72.0137C200.457 71.671 200.524 71.3344 200.524 71.0039C200.524 70.6367 200.353 70.3307 200.01 70.0859C199.68 69.8289 199.27 69.7004 198.78 69.7004C197.948 69.7004 197.159 70.1777 196.412 71.1324C195.665 72.0871 195.292 73.0969 195.292 74.1617C195.292 75.3612 195.929 75.9609 197.201 75.9609C197.581 75.9609 197.96 75.8753 198.34 75.7039C198.731 75.5326 198.97 75.349 199.056 75.1531ZM221.094 75.9977H223.224C224.069 75.9977 224.668 76.1262 225.023 76.3832C225.378 76.628 225.556 77.038 225.556 77.6133C225.556 78.3599 225.28 78.9474 224.729 79.3758C224.191 79.7919 223.432 80 222.453 80H219.167C218.138 80 217.453 79.6022 217.11 78.8066C216.437 79.6022 215.593 80 214.577 80H211.896C210.819 80 209.926 79.6634 209.216 78.9902C208.506 78.3171 208.151 77.4664 208.151 76.4383C208.151 75.8508 208.31 75.1654 208.628 74.382L211.125 68.25C211.823 66.5487 212.778 65.698 213.989 65.698C214.516 65.698 214.962 65.8694 215.329 66.2121C215.697 66.5426 215.88 66.9526 215.88 67.4422C215.88 67.8094 215.782 68.2316 215.586 68.709L215.385 69.2047L213.457 73.923L213.255 74.4738C213.145 74.7921 213.084 75.0307 213.071 75.1898C213.047 75.7406 213.402 76.016 214.136 76.016C215.654 76.016 216.664 75.404 217.165 74.1801L219.46 68.5254C220.146 66.8118 221.113 65.9551 222.361 65.9551C222.875 65.9551 223.316 66.1264 223.683 66.4691C224.05 66.8118 224.234 67.2219 224.234 67.6992C224.234 68.0786 224.075 68.6661 223.756 69.4617L221.094 75.9977ZM232.54 74.6207C232.54 75.5387 233.231 75.9977 234.614 75.9977H240.067C241.609 75.9977 242.38 76.5423 242.38 77.6316C242.38 78.3783 242.105 78.9596 241.554 79.3758C241.015 79.7919 240.257 80 239.277 80H234.082C232.148 80 230.673 79.5227 229.657 78.568C228.653 77.6133 228.152 76.218 228.152 74.382C228.152 72.0198 228.947 69.9819 230.538 68.2684C232.142 66.5548 234.045 65.698 236.248 65.698C237.852 65.698 239.137 66.1203 240.104 66.9648C241.083 67.7971 241.572 68.8987 241.572 70.2695C241.572 71.9219 240.899 73.1458 239.553 73.9414C238.806 74.3943 237.692 74.6207 236.211 74.6207H232.54ZM233.421 71.2793H235.44C236.75 71.2793 237.386 70.9917 237.35 70.4164C237.313 69.7677 236.891 69.4434 236.083 69.4434C234.957 69.4434 234.069 70.0553 233.421 71.2793ZM251.071 70.9672L250.723 71.8117C250.184 73.0234 249.419 73.6293 248.428 73.6293C247.926 73.6293 247.473 73.4579 247.069 73.1152C246.677 72.7603 246.482 72.3564 246.482 71.9035C246.482 71.4751 246.659 70.906 247.014 70.1961L249.456 65.2391C250.056 64.0518 250.802 63.4582 251.696 63.4582C252.173 63.4582 252.583 63.6173 252.926 63.9355C253.268 64.2415 253.44 64.6087 253.44 65.0371C253.44 65.1473 253.403 65.3859 253.33 65.7531C253.281 66.0224 253.256 66.2611 253.256 66.4691C253.256 67.2402 253.544 68.0297 254.119 68.8375L255.166 70.2879C256.23 71.7689 256.763 73.2009 256.763 74.584C256.763 76.1262 256.188 77.4174 255.037 78.4578C253.887 79.4859 252.455 80 250.741 80H246.904C245.349 80 244.572 79.4615 244.572 78.3844C244.572 77.6378 244.848 77.0564 245.398 76.6402C245.949 76.2118 246.708 75.9977 247.675 75.9977H249.805C251.506 75.9977 252.357 75.3796 252.357 74.1434C252.357 73.6905 252.198 73.1581 251.879 72.5461L251.071 70.9672Z" fill="white"/>
<path d="M78.4552 9.60994C78.866 8.96437 78.6978 8.72766 77.9505 8.89981C71.9173 10.2966 66.3223 11.889 61.1655 13.6771C58.683 14.5398 57.2099 16.3357 56.0478 18.6128C55.9422 18.828 55.7916 18.8671 55.5959 18.7302C54.1639 17.709 51.5288 15.0739 52.3622 13.1195C54.0994 9.02892 59.8098 6.7342 63.7478 5.42544C71.571 2.81965 79.6349 1.67522 87.6694 0.0847568C89.1287 -0.200862 90.4355 0.235391 91.5898 1.39352C93.1352 2.9429 93.5343 4.7603 92.787 6.8457C91.9595 9.1463 90.9501 11.4939 90.3749 13.8884C89.3381 18.1961 88.3951 22.7015 87.5461 27.4044C87.1588 29.5583 88.3501 31.5243 89.6706 33.1148C89.8936 33.3769 89.878 33.6254 89.6237 33.8601L86.7479 36.5481C86.5875 36.7007 86.4917 36.8846 86.4604 37.0998C85.6152 43.3286 85.3668 49.8665 85.715 56.7136C85.8167 58.7051 86.1884 60.3229 86.8301 61.5671C87.5813 63.0109 87.2409 64.6248 85.4744 65.0239C80.7206 66.0979 79.2593 61.3089 79.224 57.6056C79.1732 52.7853 79.1712 48.2135 79.2182 43.8901C79.2416 41.6755 79.4529 39.3045 79.852 36.777C79.8997 36.4681 79.8241 36.153 79.6416 35.9002C79.4592 35.6474 79.1847 35.4774 78.8778 35.4271C76.8511 35.0985 74.5485 34.9967 71.9701 35.122C71.2658 35.1572 70.7748 35.476 70.497 36.0786C68.5055 40.402 65.7706 45.3671 62.2923 50.9738C60.8329 53.3253 59.4381 54.8629 58.1078 55.5867C56.1398 56.6627 53.8724 56.7312 51.3058 55.7921C49.7486 55.2248 48.8624 54.1078 48.6472 52.441C48.1777 48.814 52.3681 48.503 54.7802 48.6673C55.0384 48.6869 55.2751 48.6223 55.4903 48.4736C56.1946 47.9885 56.7521 47.382 57.1629 46.6543C58.7162 43.9155 60.3106 40.9771 61.9461 37.8392C62.2708 37.2132 62.533 36.5461 62.7325 35.838C62.7646 35.7195 62.7713 35.5955 62.7521 35.4744C62.7328 35.3533 62.6881 35.2378 62.6209 35.1355C62.5536 35.0333 62.4655 34.9468 62.3623 34.8817C62.2591 34.8166 62.1432 34.7745 62.0224 34.7581C60.5199 34.5507 59.4831 33.6586 58.9119 32.0819C58.8375 31.8784 58.8493 31.6808 58.9471 31.4891C60.4847 28.3786 63.7419 28.7014 66.7116 28.6779C66.951 28.6763 67.1856 28.6093 67.3902 28.4842C67.5949 28.3592 67.762 28.1806 67.8736 27.9678C71.2228 21.5238 74.75 15.4045 78.4552 9.60994ZM80.3802 27.4748C81.3075 24.1295 81.5481 20.6024 82.5634 17.263C82.5748 17.2231 82.5766 17.1811 82.5688 17.1404C82.5609 17.0998 82.5436 17.0618 82.5182 17.0295C82.4929 16.9973 82.4603 16.9718 82.4232 16.9552C82.3861 16.9386 82.3457 16.9315 82.3052 16.9343C81.8787 16.9656 81.5579 17.1671 81.3427 17.5388C79.4764 20.8175 77.7373 24.0376 76.1253 27.199C75.601 28.2241 75.914 28.7386 77.0643 28.7425L78.7076 28.7484C79.5879 28.7523 80.1455 28.3277 80.3802 27.4748Z" fill="white"/>
<path d="M205.675 45.1228C205.33 44.5946 204.91 44.5261 204.413 44.9174C202.946 46.0794 201.5 47.1143 200.076 48.022C195.897 50.6943 192.014 50.4185 188.426 47.1945C188.252 47.0381 188.029 46.946 187.794 46.9332C187.559 46.9204 187.327 46.9877 187.135 47.1241C184.365 49.0902 181.917 50.5398 178.314 49.8825C176.747 49.5949 175.509 48.4681 174.452 47.3354C173.801 46.6429 172.821 46.5959 172.081 47.1476C168.595 49.7475 164.769 50.8332 160.672 48.5972C159.592 47.9986 158.853 46.725 158.418 45.5982C158.371 45.4746 158.297 45.3625 158.203 45.2694C158.109 45.1763 157.996 45.1043 157.872 45.0582C157.748 45.0121 157.616 44.993 157.485 45.0021C157.353 45.0112 157.226 45.0484 157.11 45.1111C156.237 45.5845 155.447 46.1323 154.739 46.7544C152.708 48.5444 149.973 49.5949 147.303 49.8003C144.679 50.0116 143.165 48.9728 141.422 47.218C141.135 46.9286 140.747 46.7612 140.338 46.7503C139.93 46.7394 139.532 46.8858 139.227 47.1593C135.988 50.1055 132.314 50.6611 128.205 48.8261C126.134 47.8988 125.664 44.7179 125.975 42.8281C126.66 38.6181 128.084 34.5569 130.248 30.6443C130.281 30.5838 130.302 30.5171 130.308 30.4484C130.315 30.3797 130.308 30.3103 130.287 30.2444C130.266 30.1786 130.232 30.1177 130.187 30.0654C130.142 30.013 130.087 29.9704 130.025 29.94C129.63 29.7483 129.233 29.7659 128.833 29.9929C127.448 30.7715 126.251 31.7242 125.242 32.851C121.294 37.2683 117.829 42.1688 114.848 47.5525C114.343 48.4642 113.67 49.2173 112.829 49.8121C112.696 49.902 112.549 49.9412 112.389 49.9294C110.211 49.7475 106.631 46.8072 106.69 44.4303C106.731 42.6931 107.494 40.9442 108.609 39.6295C110.605 37.282 113.029 34.418 114.349 31.5364C115.898 28.1598 117.489 24.8791 119.12 21.6943C121.926 16.2284 124.668 10.7097 127.349 5.13816C127.975 3.83135 128.636 2.55389 129.332 1.30578C129.451 1.09152 129.617 0.906547 129.817 0.764384C130.017 0.622221 130.246 0.52647 130.488 0.484137C132.202 0.184825 135.583 1.53467 134.937 3.85287C133.2 10.0798 129.555 15.2385 126.75 21.0956C126.065 22.5276 125.291 23.8697 124.426 25.1217C124.392 25.1706 124.369 25.2267 124.36 25.2856C124.351 25.3446 124.356 25.4048 124.374 25.4616C124.393 25.5184 124.424 25.5703 124.465 25.6131C124.507 25.6559 124.558 25.6886 124.614 25.7086C125.216 25.9316 125.762 25.824 126.251 25.3858C127.488 24.2824 128.921 23.4099 130.553 22.7683C133.869 21.4654 137.402 24.2003 138.91 26.9528C139.006 27.1242 139.043 27.3239 139.016 27.5221C138.891 28.5237 138.613 29.494 138.183 30.433C136.551 33.9896 134.902 37.4972 133.235 40.9559C133.158 41.1134 133.126 41.2898 133.141 41.4665C133.2 42.2451 133.673 42.4916 134.561 42.206C136.011 41.7365 137.754 39.9465 138.834 38.444C140.841 35.6387 142.954 32.8647 145.172 30.122C148.177 26.407 151.757 22.915 156.071 21.7882C158.618 21.125 161.758 22.2811 162.932 24.6111C163.014 24.7744 163.134 24.9164 163.281 25.0259C163.427 25.1355 163.597 25.2097 163.777 25.2427C163.956 25.2757 164.141 25.2665 164.316 25.216C164.491 25.1655 164.652 25.0749 164.786 24.9515C165.537 24.259 166.4 23.7679 167.374 23.4784C167.593 23.4158 167.809 23.4256 168.02 23.5077C169.346 24.0203 170.42 24.8654 171.242 26.0431C171.305 26.132 171.349 26.2332 171.371 26.3402C171.393 26.4473 171.393 26.5579 171.371 26.6652C171.281 27.1151 171.13 27.5377 170.919 27.9329C168.517 32.4558 166.523 36.9905 164.939 41.5369C164.903 41.6355 164.897 41.7422 164.922 41.844C164.946 41.9459 164.999 42.0385 165.075 42.1107C165.151 42.1828 165.246 42.2313 165.349 42.2504C165.452 42.2694 165.558 42.258 165.655 42.2177C166.077 42.0456 166.478 41.8186 166.858 41.5369C173.079 36.8829 176.835 31.9472 180.491 25.5325C181.231 24.2355 182.698 23.0265 184.294 23.6955C185.58 24.2355 187.921 25.1921 187.264 27.0643C185.492 32.1115 182.052 36.3195 180.045 41.1672C179.286 42.9983 179.756 43.4013 181.454 42.3762C183.402 41.2024 185.175 39.5533 186.771 37.4287C190.873 31.9531 196.601 22.6978 203.826 21.6121C207.6 21.0487 208.938 23.1673 211.186 25.4503C211.362 25.6303 211.561 25.6616 211.784 25.5442C213.199 24.8048 214.278 23.8129 215.922 23.5488C216.137 23.5136 216.333 23.5586 216.509 23.6838C218.938 25.3799 218.786 27.4223 217.43 29.764C215.509 33.0936 213.823 36.9866 212.371 41.443C212.338 41.5447 212.334 41.6535 212.359 41.7573C212.385 41.8612 212.438 41.9559 212.515 42.0308C212.591 42.1058 212.686 42.1581 212.791 42.1817C212.895 42.2054 213.004 42.1996 213.105 42.1649C214.024 41.848 214.873 41.3765 215.652 40.7505C218.261 38.6573 220.728 36.208 223.052 33.4027C225.67 30.2452 227.536 26.1898 229.367 22.4631C230.928 19.2939 234.262 20.8315 235.723 23.003C235.86 23.2065 235.882 23.4217 235.788 23.6486L235.582 24.1592C235.515 24.3237 235.502 24.5048 235.543 24.6774C235.584 24.8501 235.678 25.0057 235.812 25.123C235.946 25.2402 236.113 25.3132 236.291 25.3319C236.468 25.3506 236.647 25.314 236.803 25.2273C239.99 23.4256 243.183 22.1872 245.859 25.3917C247.107 26.8823 247.215 28.735 246.182 30.9495C244.801 33.9035 243.374 36.9925 241.903 40.2164C241.708 40.6429 241.637 41.087 241.692 41.5487C241.758 42.1473 242.044 42.2803 242.549 41.9478C244.814 40.4747 246.205 38.1036 248.699 36.8947C248.907 36.7929 249.114 36.7949 249.321 36.9005C250.241 37.3544 251.078 38.0899 251.833 39.1072C252.565 40.0893 252.589 41.0655 251.904 42.0358C249.122 45.9855 242.062 51.9835 236.733 48.9845C234.291 47.6112 233.892 44.4948 234.344 41.9712C234.915 38.7981 235.402 36.8164 235.805 36.0261C236.525 34.6097 237.245 33.1797 237.965 31.7359C238.587 30.4878 238.268 30.163 237.009 30.7617C235.972 31.2586 234.872 32.1428 233.71 33.4144C231.286 36.0671 229.05 38.802 227.243 41.801C225.811 44.1799 224.404 46.3455 223.023 48.2979C222.43 49.1313 221.227 49.8766 220.153 49.5714C219.335 49.3367 218.486 49.278 217.606 49.3954C216.119 49.5949 214.636 49.726 213.157 49.7886C211.068 49.8707 207.541 49.0843 206.62 46.907C206.35 46.2653 206.035 45.6706 205.675 45.1228ZM206.074 30.3215C205.937 30.0985 205.864 29.9811 205.857 29.9694C204.898 28.4278 203.799 28.2557 202.558 29.4529C200.087 31.8357 194.5 37.5344 194.841 40.4218C194.861 40.5945 194.918 40.7607 195.008 40.9095C195.098 41.0583 195.219 41.1861 195.362 41.2845C195.506 41.3828 195.668 41.4494 195.84 41.4798C196.011 41.5102 196.186 41.5036 196.355 41.4606C199.97 40.5392 203.662 37.7104 205.874 34.7642C206.954 33.3283 207.021 31.8474 206.074 30.3215ZM148.289 41.5545C148.685 41.6391 149.097 41.6189 149.486 41.4958C153.684 40.1499 157.084 37.4365 159.686 33.3557C160.872 31.4953 158.659 29.2416 157.127 28.6606C156.943 28.5902 156.76 28.5921 156.576 28.6665C155.527 29.1047 154.637 29.762 153.905 30.6384C151.646 33.3557 148.588 36.9064 147.573 40.3573C147.381 41.0107 147.62 41.4098 148.289 41.5545Z" fill="white"/>
<path d="M103.21 16.5116C103.249 16.4322 103.267 16.3439 103.262 16.2555C103.257 16.1671 103.229 16.0818 103.181 16.008C103.133 15.9342 103.066 15.8747 102.988 15.8353C102.909 15.796 102.822 15.7782 102.735 15.7838C100.105 15.9403 97.6405 15.6802 95.3399 15.0033C94.1309 14.6512 92.5756 13.4128 92.9747 11.9749C93.5322 9.93257 95.0992 8.46536 97.171 8.75293C99.0842 9.01703 106.356 10.2671 107.406 8.50057C108.357 6.9101 111.01 1.07057 113.557 2.46736C114.443 2.95448 115.816 3.84068 116.022 4.90882C116.18 5.75393 115.37 7.32092 115.036 8.13083C115.015 8.18006 115.005 8.23332 115.008 8.28683C115.01 8.34033 115.025 8.39276 115.05 8.44038C115.075 8.48801 115.11 8.52966 115.154 8.56238C115.197 8.5951 115.247 8.61808 115.3 8.62968C117.824 9.16375 121.791 10.8716 119.209 14.2873C118.747 14.8976 118.193 15.1989 117.548 15.1911C115.932 15.1715 114.093 15.1461 112.031 15.1148C111.791 15.111 111.555 15.1743 111.349 15.2976C111.142 15.421 110.974 15.5995 110.863 15.8132C105.518 26.2011 100.876 36.8785 96.9362 47.8455C96.764 48.3307 96.9127 48.6789 97.3822 48.8902C102.06 51.0088 104.595 54.9469 105.317 59.9119C106.021 64.7557 105.286 69.5193 103.11 74.2026C100.217 80.4354 93.9607 85.6235 86.918 85.2127C83.2676 85.0014 80.0064 83.5635 77.1346 80.899C75.7202 79.5903 73.4724 76.2685 74.9925 74.3083C75.9237 73.111 77.0857 72.3676 78.4786 72.0781C78.7921 72.0137 79.1182 72.0541 79.4066 72.193C79.6949 72.3319 79.9298 72.5616 80.0749 72.8469C81.8825 76.3976 84.5763 79.3027 88.89 78.4869C92.1178 77.8766 95.1521 75.1769 96.6251 72.0722C98.3975 68.3514 98.9707 64.5757 98.3447 60.7453C97.6463 56.5021 95.0288 55.4222 91.4723 54.1546C89.4592 53.4327 89.0249 51.8129 89.5884 49.8468C90.59 46.3294 91.6327 43.1895 92.7165 40.4273C96.1987 31.5692 99.6965 23.5973 103.21 16.5116Z" fill="white"/>
<path d="M39.0874 22.796L30.8475 22.8104C29.4083 22.8129 28.2437 23.9816 28.2462 25.4207L28.2474 26.0546C28.2499 27.4937 29.4185 28.6583 30.8577 28.6558L39.0976 28.6414C40.5367 28.6389 41.7013 27.4702 41.6988 26.0311L41.6977 25.3972C41.6952 23.9581 40.5265 22.7935 39.0874 22.796Z" fill="white"/>
<path d="M286.695 23.1131C290.421 23.6179 288.766 28.4597 285.726 28.6592C283.473 28.804 281.266 28.7844 279.106 28.6005C275.696 28.3071 274.364 23.4418 278.414 22.9136C280.722 22.6123 283.482 22.6788 286.695 23.1131Z" fill="white"/>
<path d="M253.265 24.3877C253.68 23.4291 254.419 22.9322 255.483 22.897C259.275 22.7718 263.522 22.764 268.225 22.8736C270.017 22.9127 270.96 23.8282 271.054 25.6202C271.057 25.675 271.059 25.7121 271.059 25.7317C271.157 27.5276 270.339 28.4588 268.606 28.5253C265.292 28.6544 262.019 28.7522 258.788 28.8187C256.851 28.8579 255.319 28.5351 254.192 27.8504C252.913 27.0718 252.604 25.9176 253.265 24.3877Z" fill="white"/>
<path d="M296.581 28.8182C298.876 28.8422 300.75 27.4928 300.768 25.8042C300.786 24.1156 298.94 22.7272 296.645 22.7032C294.35 22.6791 292.476 24.0286 292.458 25.7172C292.44 27.4058 294.286 28.7942 296.581 28.8182Z" fill="white"/>
<path d="M22.1952 33.4025L14.7769 33.3895C13.4253 33.3872 12.3277 34.481 12.3253 35.8326L12.3236 36.8303C12.3212 38.1819 13.415 39.2795 14.7666 39.2819L22.1849 39.2948C23.5365 39.2972 24.6341 38.2034 24.6365 36.8518L24.6382 35.8541C24.6406 34.5024 23.5468 33.4048 22.1952 33.4025Z" fill="white"/>
<path d="M51.0285 33.4421L32.2716 33.4094C30.9654 33.4071 29.9046 34.4642 29.9024 35.7704L29.9004 36.909C29.8981 38.2152 30.9552 39.276 32.2614 39.2783L51.0183 39.311C52.3245 39.3133 53.3853 38.2562 53.3876 36.95L53.3896 35.8114C53.3919 34.5052 52.3348 33.4444 51.0285 33.4421Z" fill="white"/>
<path d="M263.325 38.6851C263.167 38.6239 263.023 38.5315 262.902 38.4135C262.781 38.2955 262.685 38.1543 262.621 37.9985C261.869 36.2202 262.145 33.544 264.669 33.4677C267.83 33.3738 270.733 33.3679 273.378 33.4501C275.155 33.5049 275.949 34.4165 275.761 36.185C275.757 36.2359 275.753 36.2711 275.749 36.2906C275.561 38.0591 274.581 39.006 272.809 39.1312C270.092 39.3248 265.954 39.7063 263.325 38.6851Z" fill="white"/>
<path d="M280.59 36.0203C280.594 36.0125 280.598 35.9792 280.602 35.9205C280.735 34.3555 281.518 33.5339 282.95 33.4556C284.613 33.3656 286.477 33.3558 288.543 33.4263C289.881 33.4693 290.789 33.9134 291.266 34.7585C291.728 35.5801 291.712 36.4546 291.219 37.3819C290.761 38.2505 290.139 38.7924 289.353 39.0076C288.68 39.1915 287.95 39.2247 287.164 39.1073C285.677 38.8843 284.231 38.7219 282.826 38.6202C281.199 38.5028 280.453 37.6362 280.59 36.0203Z" fill="white"/>
<path d="M0 47.9629V46.7539C0.473423 45.5293 1.54938 44.7878 3.22788 44.5296C5.07462 44.2479 6.43229 44.8583 7.30088 46.3607C8.3162 48.1155 6.17993 50.1226 4.54251 50.4337C2.44537 50.8367 0.931195 50.0131 0 47.9629Z" fill="white"/>
<path d="M268.606 44.6977L259.62 44.3996C258.308 44.3561 257.209 45.3844 257.166 46.6964L257.142 47.4003C257.099 48.7123 258.127 49.8111 259.439 49.8547L268.425 50.1528C269.737 50.1963 270.836 49.168 270.88 47.856L270.903 47.1521C270.946 45.8401 269.918 44.7412 268.606 44.6977Z" fill="white"/>
<path d="M15.1756 44.6735L13.0952 44.4805C11.63 44.3446 10.3319 45.4222 10.196 46.8875L10.1537 47.3433C10.0178 48.8085 11.0954 50.1065 12.5607 50.2425L14.6411 50.4355C16.1063 50.5714 17.4044 49.4938 17.5403 48.0285L17.5826 47.5727C17.7185 46.1074 16.6409 44.8094 15.1756 44.6735Z" fill="white"/>
<path d="M21.8028 47.2881C21.8223 47.1121 21.8438 46.9341 21.8673 46.7541C22.0512 45.3064 22.8728 44.5728 24.3322 44.5532C28.6596 44.4906 32.9712 44.5317 37.2672 44.6765C40.3543 44.788 39.6852 49.7766 37.4844 50.1991C36.3028 50.426 34.9784 50.5219 33.5112 50.4867C30.0798 50.4006 26.8226 50.1561 23.7395 49.7531C22.2879 49.5653 21.6423 48.7436 21.8028 47.2881Z" fill="white"/>
</svg>
