<svg width="184" height="208" viewBox="0 0 184 208" fill="none" xmlns="http://www.w3.org/2000/svg">
<path d="M176.503 45.9187L100.928 2.03603C96.1618 -0.678677 89.956 -0.678677 85.1522 2.03603L8.7701 45.9187C3.8514 48.7482 0.370605 54.0663 0.370605 59.7545V147.403C0.370605 153.091 3.94223 158.411 8.86093 161.256L29.0413 172.718C38.6867 177.469 42.0956 177.469 46.4847 177.469C60.766 177.469 68.9239 168.833 68.9239 153.77V67.2388C68.9239 66.0168 68.2881 64.1984 67.0884 64.1984H57.4515C56.2312 64.1984 53.4994 66.0168 53.4994 67.2371V153.768C53.4994 160.446 47.4599 167.09 36.1726 161.446L15.3204 149.427C14.5937 149.033 14.0813 148.24 14.0813 147.403V59.7545C14.0813 58.9284 15.0324 58.0989 15.7642 57.6756L91.8995 13.8683C92.6108 13.4656 93.6562 13.4656 94.3657 13.8683L169.572 57.6653C170.292 58.0989 170.038 58.9027 170.038 59.7545V147.403C170.038 148.24 170.352 149.054 169.641 149.456L94.0847 193.289C93.4368 193.678 92.633 193.678 91.9235 193.289L72.5452 181.723C71.9608 181.383 71.2667 181.262 70.7063 181.575C65.3146 184.631 64.3205 185.037 59.263 186.791C58.0188 187.224 56.1833 187.977 59.9657 190.097L85.327 205.099C87.7482 206.498 90.495 207.234 93.2912 207.235C96.1053 207.235 98.8611 206.505 101.29 205.099L176.501 161.256C181.42 158.391 183.751 153.091 183.751 147.403V59.7545C183.751 54.0663 181.42 48.7619 176.503 45.9187ZM116.757 133.514C96.6606 133.514 92.2337 127.97 90.7581 117.977C90.5867 116.9 89.6732 115.613 88.5781 115.613H78.7561C77.541 115.613 76.5641 117.087 76.5641 118.297C76.5641 131.093 83.5206 146.596 116.759 146.596C140.819 146.596 154.614 137.247 154.614 120.702C154.614 104.297 143.53 99.9918 120.197 96.9035C96.6108 93.786 94.2149 92.211 94.2149 86.6856C94.2149 82.1303 96.2441 76.0547 113.708 76.0547C129.312 76.0547 135.064 79.4035 137.431 89.9213C137.633 90.9102 138.536 91.6197 139.556 91.6197H149.417C150.024 91.6197 150.603 91.3747 151.028 90.9411C151.44 90.4749 151.657 89.8905 151.603 89.2632C150.076 71.1515 138.043 62.7108 113.706 62.7108C92.0589 62.7108 79.1452 71.8524 79.1452 87.1758C79.1452 103.797 91.9938 108.39 112.774 110.444C137.633 112.882 139.566 116.515 139.566 121.404C139.566 129.896 132.749 133.514 116.757 133.514Z" fill="#83CD29"/>
</svg>
