<svg width="210" height="107" viewBox="0 0 210 107" fill="none" xmlns="http://www.w3.org/2000/svg">
<path d="M104.697 0.415039C46.8723 0.415039 -0.0078125 24.1722 -0.0078125 53.477C-0.0078125 82.7818 46.8723 106.539 104.697 106.539C162.522 106.539 209.402 82.7818 209.402 53.477C209.402 24.1722 162.522 0.415039 104.697 0.415039ZM77.4523 63.8148C74.9535 66.1525 72.1788 67.1174 69.123 68.1114C66.0673 69.1071 62.1786 68.9015 57.4501 68.9015H46.7335L43.7635 86.0398H31.2508L42.4164 27.7695H66.4786C73.7178 27.7695 78.9981 29.8518 82.3178 33.6514C85.6375 37.4509 86.635 42.8444 85.3119 49.6534C84.7652 52.459 83.8449 55.0674 82.5458 57.3914C81.1996 59.7893 79.4802 61.9575 77.4523 63.8148ZM113.976 68.9015L118.913 44.188C119.475 41.2951 119.27 39.1459 118.295 38.0953C117.318 37.0431 115.241 36.3387 112.065 36.3387H102.142L95.7474 68.9015H83.3324L94.498 12.345H106.913L103.945 27.7695H115.004C121.964 27.7695 126.763 29.1663 129.404 31.5931C132.045 34.0199 132.836 37.3447 131.781 42.781L126.586 68.9015H113.976ZM182.973 49.7443C182.428 52.5498 181.506 55.1137 180.208 57.4359C178.909 59.7616 177.213 61.8885 175.117 63.8148C172.618 66.1525 169.842 67.1174 166.787 68.1114C163.733 69.1071 159.841 68.9015 155.113 68.9015H144.396L141.428 86.0398H128.915L140.079 27.7695H164.143C171.382 27.7695 176.663 29.8518 179.981 33.6514C183.297 37.4509 184.296 42.9369 182.973 49.7443ZM159.401 36.3387H150.83L146.156 60.3323H153.769C158.811 60.3323 162.571 59.8353 165.039 57.9329C167.511 56.034 169.175 53.0862 170.04 48.6423C170.87 44.3731 170.493 41.0431 168.909 39.2882C167.324 37.5332 164.155 36.3387 159.401 36.3387ZM61.7381 36.3387H53.1655L48.4919 60.3323H56.1031C61.1469 60.3323 64.9053 59.8353 67.3749 57.9329C69.8446 56.034 71.5104 53.0862 72.3742 48.6423C73.2037 44.3731 72.8266 41.0431 71.243 39.2882C69.6595 37.5332 66.4923 36.3387 61.7381 36.3387Z" fill="#6181B6"/>
</svg>
