<svg width="165" height="166" viewBox="0 0 165 166" fill="none" xmlns="http://www.w3.org/2000/svg">
<path fill-rule="evenodd" clip-rule="evenodd" d="M84.6624 0.863848C38.7643 0.0446359 0.413856 37.2879 0.401859 82.4508C0.388149 128.913 36.9716 165.981 82.7978 165.913C128.197 165.846 164.945 128.916 164.945 83.3626C164.943 38.5493 128.363 1.64364 84.6624 0.863848ZM82.6949 161.77C39.2904 161.781 4.38309 126.587 4.3848 82.8193C4.38652 40.1792 39.8354 4.87421 82.6624 4.85879C126.249 4.84508 160.976 40.2563 160.962 84.7011C160.948 126.661 125.302 161.762 82.6949 161.77ZM124.504 60.0596C122.8 57.2524 120.706 54.5291 119.743 51.4682C118.646 47.9857 117.736 44.0216 118.317 40.5305C119.304 34.6109 123.844 31.6717 129.992 31.1096C96.3593 -0.104468 43.5082 11.068 24.0339 44.983C31.5302 44.6351 38.6871 44.181 45.8493 44.085C47.2049 44.0661 49.4483 45.211 49.7671 46.2735C50.48 48.6472 48.4851 49.475 46.3634 49.6378C44.1337 49.8126 41.9006 49.9788 39.311 50.1759L64.9071 126.431C65.5223 125.425 65.776 125.142 65.8874 124.812C70.621 110.664 75.382 96.5248 79.9956 82.336C80.4172 81.0421 80.2082 79.3282 79.7454 77.9983C77.3049 70.9527 74.3811 64.0597 72.2406 56.9284C70.7752 52.0457 68.8335 48.8871 63.063 49.4527C62.0792 49.5487 60.8813 47.4338 59.7793 46.3404C61.1109 45.5469 62.4323 44.085 63.7759 44.0644C75.5276 43.8845 87.2813 43.8879 99.0329 44.0747C100.38 44.097 101.701 45.5983 103.035 46.4124C101.868 47.4784 100.863 49.0757 99.499 49.487C97.3122 50.1468 94.8871 50.0217 92.2701 50.2548L117.897 126.493C121.781 113.598 125.393 101.755 128.903 89.8854C132.04 79.2905 130.171 69.3931 124.504 60.0596ZM63.1675 149.546C63.0099 150.003 63.0013 150.511 62.8796 151.271C77.3752 155.289 91.5863 154.999 106.137 150.097L83.9117 89.2222C76.7976 109.898 69.9766 129.72 63.1675 149.546ZM51.9676 146.793L18.4828 54.9387C3.37707 84.4457 14.8683 129.466 51.9676 146.793ZM145.289 51.8418C144.826 56.973 145.149 62.6852 143.676 67.8867C140.209 80.144 135.971 92.1905 131.89 104.27C127.455 117.398 122.841 130.467 118.305 143.563C139.62 130.928 151.332 112.28 153.197 87.7688C154.259 73.8183 149.447 54.4999 145.289 51.8418Z" fill="#494949"/>
</svg>
