<svg width="32" height="32" viewBox="0 0 32 32" fill="none" xmlns="http://www.w3.org/2000/svg">
<path d="M7.16429 32H0.528571V10.6357H7.16429V32ZM3.84286 7.72143C1.72143 7.72143 0 5.96429 0 3.84286C0 2.82367 0.404871 1.84622 1.12555 1.12555C1.84622 0.404871 2.82367 0 3.84286 0C4.86205 0 5.83949 0.404871 6.56017 1.12555C7.28084 1.84622 7.68571 2.82367 7.68571 3.84286C7.68571 5.96429 5.96429 7.72143 3.84286 7.72143ZM31.9929 32H25.3714V21.6C25.3714 19.1214 25.3214 15.9429 21.9214 15.9429C18.4714 15.9429 17.9429 18.6357 17.9429 21.4214V32H11.3143V10.6357H17.6786V13.55H17.7714C18.6571 11.8714 20.8214 10.1 24.05 10.1C30.7643 10.1 32 14.5214 32 20.2643V32H31.9929Z" fill="white"/>
</svg>
