<?xml version="1.0" standalone="no"?>
<!DOCTYPE svg PUBLIC "-//W3C//DTD SVG 20010904//EN"
 "http://www.w3.org/TR/2001/REC-SVG-20010904/DTD/svg10.dtd">
<svg version="1.0" xmlns="http://www.w3.org/2000/svg"
 width="700.000000pt" height="700.000000pt" viewBox="0 0 700.000000 700.000000"
 preserveAspectRatio="xMidYMid meet">
<metadata>
Created by potrace 1.14, written by Peter Selinger 2001-2017
</metadata>
<g transform="translate(0.000000,700.000000) scale(0.100000,-0.100000)"
fill="#000000" stroke="none">
<path d="M3200 6974 c-302 -36 -453 -63 -650 -119 -1076 -304 -1945 -1112
-2325 -2161 -81 -223 -138 -450 -177 -709 -20 -132 -23 -188 -23 -475 0 -263
3 -349 18 -450 51 -349 127 -628 249 -915 462 -1088 1450 -1872 2607 -2070
281 -47 685 -60 964 -29 467 51 968 214 1354 439 834 489 1420 1270 1648 2195
106 433 125 932 54 1385 -167 1051 -835 1992 -1780 2502 -366 199 -757 326
-1194 389 -105 15 -656 28 -745 18z m1578 -930 c109 -48 213 -182 232 -299 14
-85 -3 -156 -95 -407 -58 -155 -101 -294 -134 -431 -89 -363 -221 -1013 -221
-1092 0 -97 55 -228 147 -348 34 -44 43 -63 37 -76 -5 -10 -64 -69 -131 -131
-68 -63 -125 -121 -128 -129 -6 -23 -32 -238 -45 -371 -21 -231 -30 -461 -30
-750 1 -499 18 -667 87 -828 41 -97 50 -146 34 -195 -27 -81 -126 -124 -261
-115 -147 11 -251 108 -315 298 -37 109 -44 194 -49 620 -6 538 7 1009 34
1217 29 221 23 230 -143 253 -128 17 -385 23 -465 12 -45 -7 -82 -18 -94 -29
-11 -10 -76 -128 -143 -263 -195 -386 -506 -925 -638 -1103 -172 -234 -328
-318 -565 -304 -169 9 -318 71 -375 155 -73 106 -82 250 -20 330 63 84 179
122 365 122 124 0 130 2 201 69 45 41 96 127 267 440 157 290 223 422 245 493
17 54 17 58 1 83 -9 14 -23 28 -29 30 -7 2 -37 11 -68 19 -69 19 -140 79 -174
147 -32 62 -31 85 4 140 84 130 214 179 479 179 175 0 181 4 247 131 161 313
467 848 690 1206 74 119 135 224 135 234 0 9 -7 19 -15 23 -15 5 -421 -92
-660 -159 -352 -99 -715 -215 -800 -257 -127 -63 -224 -158 -306 -302 -24 -42
-49 -76 -57 -76 -7 0 -57 44 -111 98 -106 106 -157 187 -167 266 -6 41 -2 56
31 123 67 136 222 273 437 388 248 132 675 271 1168 380 177 39 1149 227 1235
238 49 6 107 -4 163 -29z"/>
<path d="M4110 4715 c-15 -7 -49 -55 -82 -112 -187 -328 -398 -732 -398 -762
0 -12 9 -30 20 -41 18 -18 33 -20 141 -20 174 0 188 11 229 181 11 46 40 192
65 324 24 132 55 281 68 332 30 111 20 133 -43 98z"/>
</g>
</svg>
