<svg width="685" height="216" viewBox="0 0 685 216" fill="none" xmlns="http://www.w3.org/2000/svg">
<path d="M329.413 172.039H336.186C340.06 172.039 341.998 173.363 341.998 176.011C341.998 177.906 341.315 179.383 339.949 180.443C338.611 181.502 336.716 182.031 334.263 182.031H326.319C323.42 182.031 321.177 181.432 319.588 180.233C318.027 179.007 317.247 177.265 317.247 175.007C317.247 173.558 317.832 171.44 319.003 168.652L329.747 143.483L321.678 152.138C319.755 154.228 317.929 155.273 316.201 155.273C313.944 155.273 312.48 153.727 311.811 150.633L310.641 145.448L300.439 170.617C296.927 179.258 294.252 185.125 292.412 188.219C290.572 191.341 288.189 194.044 285.263 196.33C281.026 199.619 276.162 201.263 270.671 201.263C264.818 201.263 260.066 199.41 256.414 195.703C252.763 192.024 250.937 187.216 250.937 181.279C250.937 173.502 253.808 166.659 259.55 160.75C262.644 157.601 266.504 155.064 271.131 153.141C275.758 151.19 280.315 150.215 284.803 150.215C287.088 150.215 288.914 150.702 290.28 151.678C291.645 152.653 292.328 153.949 292.328 155.566C292.328 157.266 291.604 158.646 290.154 159.705C289.318 160.318 287.701 160.736 285.304 160.959C279.758 161.461 275.284 162.729 271.884 164.764C269.069 166.464 266.825 168.68 265.152 171.412C263.508 174.143 262.686 177 262.686 179.983C262.686 183.16 263.494 185.655 265.111 187.466C266.727 189.306 268.943 190.226 271.758 190.226C275.131 190.226 278.058 188.776 280.538 185.878C283.047 183.007 285.792 177.92 288.775 170.617L305.373 129.77C306.822 126.174 308.773 124.377 311.226 124.377C312.787 124.377 314.013 124.878 314.905 125.882C315.825 126.885 316.619 128.641 317.288 131.15L319.839 140.766L332.381 128.432C335.141 125.728 337.719 124.377 340.116 124.377C341.789 124.377 343.196 124.892 344.339 125.923C345.51 126.927 346.095 128.153 346.095 129.603C346.095 130.522 345.872 131.526 345.426 132.613L344.464 134.954L329.413 172.039ZM379.433 172.917H384.032C387.544 172.917 389.3 174.143 389.3 176.596C389.3 178.296 388.673 179.634 387.419 180.61C386.165 181.557 384.437 182.031 382.235 182.031H376.883C374.486 182.031 372.855 181.098 371.991 179.23C369.901 181.098 367.88 182.031 365.929 182.031H361.163C358.097 182.031 355.616 180.944 353.721 178.77C351.853 176.568 350.92 173.697 350.92 170.157C350.92 164.806 352.759 160.026 356.438 155.817C360.145 151.58 364.326 149.462 368.981 149.462C372.549 149.462 375.155 150.702 376.799 153.183C378.193 151.093 380.019 150.047 382.276 150.047C383.503 150.047 384.52 150.438 385.328 151.218C386.165 151.998 386.583 152.96 386.583 154.103C386.583 154.883 386.36 155.817 385.914 156.904L385.454 158.033L379.433 172.917ZM364.257 173.126H365.302C367.588 173.126 369.107 172.192 369.859 170.325L372.786 163.092C373.176 162.144 373.371 161.35 373.371 160.709C373.371 159.956 372.995 159.301 372.242 158.744C371.518 158.186 370.64 157.907 369.608 157.907C367.574 157.907 365.595 159.092 363.671 161.461C361.748 163.83 360.787 166.283 360.787 168.82C360.787 171.69 361.943 173.126 364.257 173.126ZM405.664 159.203L404.243 162.715C402.961 165.837 401.288 167.398 399.226 167.398C397.972 167.398 396.926 167.022 396.09 166.269C395.254 165.517 394.836 164.583 394.836 163.468C394.836 162.827 395.142 161.74 395.756 160.207L400.48 148.542C401.623 145.727 403.24 144.319 405.33 144.319C407.393 144.319 408.661 145.295 409.135 147.246L409.469 148.542C409.636 149.211 409.887 149.629 410.222 149.796C410.556 149.964 411.378 150.047 412.688 150.047H422.472C426.123 150.047 427.949 151.329 427.949 153.894C427.949 157.434 425.635 159.203 421.008 159.203L420.548 159.622C416.117 163.858 413.901 167.133 413.901 169.447C413.901 171.76 415.183 172.917 417.747 172.917H423.015C426.555 172.917 428.325 174.143 428.325 176.596C428.325 178.324 427.698 179.662 426.444 180.61C425.217 181.557 423.489 182.031 421.259 182.031H413.065C410.277 182.031 407.992 181.07 406.208 179.146C404.452 177.223 403.574 174.729 403.574 171.663C403.574 169.712 404.048 167.816 404.995 165.977C405.943 164.137 407.616 161.879 410.013 159.203H405.664ZM451.044 202.016H455.643C459.183 202.016 460.953 203.27 460.953 205.779C460.953 207.479 460.326 208.789 459.071 209.709C457.845 210.657 456.103 211.13 453.845 211.13H446.111C444.215 211.13 442.682 210.657 441.512 209.709C440.341 208.761 439.756 207.521 439.756 205.988C439.756 204.873 440.146 203.354 440.926 201.431L449.539 180.233C448.034 181.432 446.278 182.031 444.271 182.031C441.484 182.031 439.156 180.972 437.289 178.854C435.449 176.708 434.529 174.046 434.529 170.868C434.529 167.942 435.184 164.931 436.494 161.837C437.832 158.744 439.533 156.207 441.595 154.228C444.94 151.051 448.884 149.462 453.427 149.462C457.246 149.462 460.353 150.563 462.751 152.765C465.175 154.939 466.388 157.768 466.388 161.252C466.388 163.203 465.844 165.503 464.757 168.151L451.044 202.016ZM453.302 170.994L456.187 163.844C456.493 163.064 456.646 162.297 456.646 161.545C456.646 160.709 456.256 160.012 455.476 159.454C454.723 158.869 453.789 158.576 452.675 158.576C450.779 158.576 448.981 159.663 447.281 161.837C445.581 164.012 444.731 166.311 444.731 168.736C444.731 171.467 446.18 172.833 449.079 172.833C449.943 172.833 450.807 172.638 451.671 172.248C452.563 171.858 453.107 171.44 453.302 170.994ZM503.489 172.917H508.339C510.262 172.917 511.628 173.21 512.436 173.795C513.245 174.352 513.649 175.286 513.649 176.596C513.649 178.296 513.022 179.634 511.768 180.61C510.541 181.557 508.813 182.031 506.583 182.031H499.099C496.758 182.031 495.197 181.125 494.417 179.314C492.884 181.125 490.961 182.031 488.647 182.031H482.543C480.09 182.031 478.055 181.265 476.439 179.732C474.822 178.199 474.014 176.262 474.014 173.92C474.014 172.582 474.376 171.022 475.101 169.238L480.787 155.273C482.376 151.399 484.55 149.462 487.309 149.462C488.508 149.462 489.525 149.852 490.361 150.633C491.197 151.385 491.616 152.319 491.616 153.434C491.616 154.27 491.393 155.232 490.947 156.319L490.487 157.448L486.097 168.192L485.637 169.447C485.386 170.171 485.247 170.715 485.219 171.077C485.163 172.332 485.971 172.959 487.644 172.959C491.1 172.959 493.399 171.565 494.542 168.778L499.768 155.901C501.329 151.998 503.531 150.047 506.374 150.047C507.545 150.047 508.548 150.438 509.384 151.218C510.221 151.998 510.639 152.932 510.639 154.019C510.639 154.883 510.276 156.221 509.552 158.033L503.489 172.917ZM529.553 169.781C529.553 171.872 531.128 172.917 534.278 172.917H546.695C550.207 172.917 551.963 174.157 551.963 176.638C551.963 178.338 551.336 179.662 550.081 180.61C548.855 181.557 547.127 182.031 544.897 182.031H533.065C528.661 182.031 525.303 180.944 522.989 178.77C520.704 176.596 519.561 173.419 519.561 169.238C519.561 163.858 521.372 159.217 524.996 155.315C528.647 151.413 532.981 149.462 537.999 149.462C541.65 149.462 544.576 150.424 546.778 152.347C549.008 154.242 550.123 156.751 550.123 159.872C550.123 163.635 548.59 166.423 545.524 168.234C543.824 169.266 541.288 169.781 537.915 169.781H529.553ZM531.56 162.172H536.159C539.141 162.172 540.591 161.517 540.507 160.207C540.423 158.73 539.462 157.991 537.622 157.991C535.058 157.991 533.037 159.385 531.56 162.172ZM571.755 161.461L570.961 163.384C569.734 166.144 567.992 167.523 565.735 167.523C564.592 167.523 563.561 167.133 562.641 166.353C561.749 165.545 561.303 164.625 561.303 163.593C561.303 162.618 561.707 161.322 562.515 159.705L568.076 148.417C569.442 145.713 571.142 144.361 573.177 144.361C574.264 144.361 575.197 144.724 575.978 145.448C576.758 146.145 577.149 146.981 577.149 147.957C577.149 148.208 577.065 148.751 576.898 149.587C576.786 150.201 576.73 150.744 576.73 151.218C576.73 152.974 577.385 154.772 578.695 156.611L581.079 159.914C583.504 163.287 584.716 166.548 584.716 169.698C584.716 173.21 583.406 176.15 580.786 178.519C578.166 180.861 574.905 182.031 571.003 182.031H562.265C558.725 182.031 556.955 180.805 556.955 178.352C556.955 176.652 557.582 175.328 558.836 174.38C560.09 173.405 561.819 172.917 564.021 172.917H568.87C572.745 172.917 574.682 171.509 574.682 168.694C574.682 167.663 574.319 166.45 573.595 165.057L571.755 161.461Z" fill="white"/>
<path d="M178.663 21.8843C179.598 20.4142 179.215 19.8752 177.514 20.2672C163.774 23.4481 151.033 27.0744 139.29 31.1463C133.636 33.1109 130.282 37.2006 127.635 42.3862C127.395 42.8763 127.052 42.9654 126.606 42.6535C123.345 40.328 117.344 34.3271 119.242 29.8766C123.198 20.5612 136.202 15.3355 145.17 12.3551C162.986 6.42109 181.349 3.81492 199.646 0.193013C202.969 -0.457415 205.945 0.536047 208.574 3.1734C212.093 6.70175 213.002 10.8404 211.3 15.5895C209.416 20.8285 207.117 26.1745 205.807 31.6274C203.446 41.4373 201.299 51.6971 199.365 62.4069C198.483 67.3119 201.196 71.7891 204.203 75.411C204.711 76.008 204.676 76.5738 204.096 77.1084L197.548 83.2295C197.182 83.577 196.964 83.9958 196.893 84.4858C194.968 98.6705 194.402 113.559 195.195 129.152C195.427 133.687 196.273 137.371 197.735 140.204C199.445 143.492 198.67 147.168 194.647 148.076C183.822 150.522 180.494 139.616 180.414 131.183C180.298 120.206 180.293 109.795 180.4 99.9491C180.454 94.9061 180.935 89.5066 181.844 83.7508C181.952 83.0474 181.78 82.3298 181.365 81.7542C180.949 81.1785 180.324 80.7913 179.625 80.6768C175.01 79.9284 169.766 79.6967 163.895 79.9818C162.291 80.062 161.173 80.7882 160.54 82.1603C156.005 92.0059 149.777 103.313 141.856 116.081C138.532 121.436 135.356 124.937 132.327 126.585C127.845 129.036 122.682 129.192 116.837 127.053C113.29 125.761 111.272 123.217 110.782 119.422C109.713 111.162 119.256 110.454 124.749 110.828C125.337 110.873 125.876 110.726 126.366 110.387C127.97 109.282 129.239 107.901 130.175 106.244C133.712 100.007 137.343 93.3156 141.067 86.1698C141.807 84.7442 142.404 83.2251 142.858 81.6124C142.931 81.3426 142.947 81.0603 142.903 80.7845C142.859 80.5087 142.757 80.2456 142.604 80.0128C142.451 79.78 142.25 79.5829 142.015 79.4347C141.78 79.2865 141.516 79.1905 141.241 79.1532C137.82 78.681 135.458 76.6495 134.158 73.0588C133.988 72.5955 134.015 72.1455 134.238 71.7089C137.739 64.6255 145.157 65.3606 151.92 65.3071C152.465 65.3033 152.999 65.1509 153.465 64.866C153.931 64.5812 154.312 64.1747 154.566 63.69C162.193 49.0152 170.225 35.08 178.663 21.8843ZM183.047 62.5673C185.158 54.9493 185.706 46.9169 188.018 39.3123C188.044 39.2215 188.048 39.1258 188.03 39.0332C188.013 38.9407 187.973 38.8541 187.915 38.7806C187.858 38.7072 187.784 38.6492 187.699 38.6115C187.615 38.5737 187.522 38.5574 187.43 38.5638C186.459 38.6351 185.728 39.094 185.238 39.9404C180.988 47.407 177.028 54.7399 173.357 61.9391C172.163 64.2736 172.876 65.4452 175.495 65.4541L179.238 65.4675C181.242 65.4764 182.512 64.5097 183.047 62.5673Z" fill="white"/>
<path d="M468.375 102.757C467.591 101.554 466.633 101.398 465.501 102.289C462.16 104.935 458.868 107.292 455.625 109.359C446.109 115.445 437.266 114.816 429.095 107.475C428.698 107.119 428.19 106.909 427.656 106.88C427.122 106.85 426.592 107.004 426.155 107.314C419.847 111.792 414.273 115.093 406.067 113.596C402.499 112.941 399.679 110.375 397.273 107.795C395.79 106.218 393.558 106.111 391.874 107.368C383.935 113.288 375.221 115.761 365.892 110.669C363.433 109.306 361.749 106.405 360.76 103.839C360.651 103.558 360.484 103.303 360.27 103.091C360.055 102.879 359.798 102.715 359.516 102.61C359.234 102.505 358.934 102.461 358.634 102.482C358.335 102.503 358.044 102.587 357.78 102.73C355.793 103.808 353.993 105.056 352.38 106.472C347.756 110.549 341.528 112.941 335.447 113.409C329.473 113.89 326.025 111.524 322.055 107.528C321.4 106.869 320.517 106.488 319.586 106.463C318.656 106.438 317.75 106.772 317.057 107.394C309.679 114.104 301.313 115.369 291.957 111.19C287.239 109.078 286.17 101.835 286.879 97.5311C288.438 87.944 291.681 78.6954 296.608 69.7855C296.684 69.6476 296.731 69.4958 296.746 69.3393C296.762 69.1828 296.745 69.0248 296.698 68.8749C296.65 68.725 296.573 68.5863 296.47 68.4671C296.367 68.3479 296.242 68.2508 296.1 68.1817C295.201 67.7451 294.296 67.7852 293.387 68.302C290.233 70.075 287.507 72.2446 285.208 74.8107C276.218 84.8701 268.328 96.0298 261.539 108.29C260.389 110.366 258.857 112.081 256.941 113.435C256.638 113.64 256.304 113.729 255.939 113.703C250.98 113.288 242.828 106.593 242.961 101.18C243.055 97.2237 244.792 93.241 247.332 90.2472C251.876 84.9012 257.396 78.3791 260.403 71.8169C263.931 64.1276 267.553 56.6566 271.268 49.4039C277.657 36.9567 283.903 24.3892 290.006 11.7013C291.432 8.72541 292.937 5.81631 294.523 2.97403C294.794 2.48611 295.171 2.06487 295.627 1.74113C296.082 1.41738 296.605 1.19933 297.156 1.10293C301.059 0.421318 308.757 3.49526 307.287 8.77442C303.331 22.9546 295.031 34.7024 288.643 48.0407C287.084 51.3017 285.319 54.3578 283.35 57.209C283.272 57.3204 283.221 57.4481 283.201 57.5824C283.181 57.7167 283.192 57.8539 283.233 57.9832C283.275 58.1125 283.345 58.2306 283.44 58.3281C283.534 58.4257 283.65 58.5001 283.778 58.5455C285.15 59.0534 286.393 58.8084 287.507 57.8105C290.322 55.2979 293.588 53.3109 297.303 51.8497C304.854 48.8827 312.9 55.1107 316.335 61.3789C316.552 61.7694 316.636 62.2241 316.576 62.6753C316.29 64.9563 315.658 67.1659 314.678 69.3043C310.962 77.4035 307.207 85.3913 303.411 93.2677C303.236 93.6263 303.163 94.0281 303.197 94.4305C303.331 96.2036 304.409 96.7649 306.432 96.1144C309.733 95.0452 313.702 90.9689 316.161 87.5475C320.732 81.1591 325.543 74.8419 330.595 68.596C337.438 60.136 345.591 52.1838 355.414 49.6177C361.215 48.1075 368.365 50.7404 371.038 56.0463C371.227 56.4181 371.498 56.7415 371.832 56.991C372.166 57.2406 372.553 57.4095 372.962 57.4846C373.371 57.5597 373.792 57.5389 374.191 57.4238C374.589 57.3088 374.956 57.1026 375.261 56.8215C376.972 55.2444 378.936 54.1262 381.155 53.4669C381.654 53.3243 382.144 53.3466 382.625 53.5337C385.646 54.7009 388.091 56.6254 389.963 59.3073C390.106 59.5099 390.206 59.7402 390.257 59.984C390.308 60.2277 390.307 60.4796 390.257 60.724C390.052 61.7487 389.709 62.711 389.228 63.6109C383.757 73.9108 379.217 84.2374 375.609 94.5908C375.528 94.8152 375.514 95.0582 375.569 95.2902C375.625 95.5222 375.746 95.7331 375.919 95.8974C376.091 96.0617 376.308 96.1722 376.543 96.2155C376.777 96.2588 377.019 96.2329 377.239 96.1412C378.201 95.7491 379.115 95.2324 379.979 94.5908C394.146 83.9924 402.699 72.7525 411.026 58.1446C412.71 55.1909 416.051 52.4377 419.686 53.9614C422.613 55.1909 427.946 57.3694 426.449 61.6328C422.413 73.1267 414.581 82.7094 410.01 93.7488C408.281 97.9187 409.351 98.8364 413.218 96.502C417.655 93.829 421.691 90.0735 425.326 85.2354C434.668 72.7659 447.713 51.6893 464.165 49.2168C472.758 47.9338 475.806 52.7585 480.924 57.9575C481.325 58.3673 481.78 58.4386 482.288 58.1713C485.509 56.4873 487.968 54.2287 491.71 53.6272C492.2 53.547 492.646 53.6495 493.047 53.9346C498.58 57.7971 498.232 62.4481 495.145 67.7807C490.77 75.3631 486.93 84.2285 483.624 94.377C483.549 94.6085 483.54 94.8563 483.597 95.0928C483.655 95.3292 483.778 95.5449 483.951 95.7156C484.125 95.8863 484.342 96.0053 484.58 96.0592C484.817 96.1132 485.065 96.0999 485.295 96.0209C487.389 95.2992 489.322 94.2255 491.095 92.7999C497.038 88.0331 502.656 82.4555 507.948 76.067C513.909 68.8766 518.159 59.6415 522.329 51.1547C525.884 43.9376 533.476 47.4393 536.803 52.3843C537.115 52.8476 537.164 53.3377 536.95 53.8544L536.483 55.0172C536.33 55.3919 536.298 55.8042 536.392 56.1974C536.485 56.5905 536.699 56.945 537.005 57.2119C537.31 57.4789 537.691 57.6451 538.095 57.6877C538.5 57.7303 538.908 57.6471 539.263 57.4496C546.52 53.3466 553.79 50.5266 559.885 57.8238C562.727 61.2185 562.972 65.4374 560.62 70.4804C557.475 77.2075 554.227 84.2419 550.877 91.5837C550.431 92.5549 550.271 93.5662 550.396 94.6176C550.547 95.9808 551.197 96.2837 552.347 95.5264C557.506 92.1718 560.673 86.7723 566.353 84.0192C566.826 83.7875 567.298 83.792 567.77 84.0325C569.864 85.0661 571.771 86.7411 573.49 89.0577C575.156 91.2941 575.21 93.5172 573.651 95.7269C567.316 104.721 551.238 118.38 539.102 111.551C533.542 108.424 532.634 101.327 533.663 95.5798C534.964 88.3539 536.073 83.841 536.991 82.0411C538.63 78.8157 540.269 75.5591 541.909 72.2714C543.326 69.4291 542.599 68.6895 539.73 70.0528C537.369 71.1843 534.866 73.198 532.219 76.0937C526.7 82.1347 521.607 88.3628 517.491 95.1923C514.23 100.61 511.027 105.541 507.882 109.987C506.532 111.885 503.792 113.582 501.346 112.887C499.484 112.353 497.551 112.219 495.546 112.487C492.16 112.941 488.783 113.239 485.415 113.382C480.657 113.569 472.625 111.778 470.527 106.82C469.912 105.359 469.195 104.004 468.375 102.757ZM469.284 69.0504C468.972 68.5425 468.807 68.2752 468.789 68.2485C466.606 64.738 464.102 64.3459 461.278 67.0724C455.651 72.4986 442.928 85.4759 443.703 92.0515C443.75 92.4446 443.88 92.8233 444.085 93.162C444.29 93.5008 444.564 93.7919 444.891 94.0159C445.217 94.2399 445.588 94.3915 445.978 94.4607C446.368 94.5299 446.768 94.515 447.151 94.4171C455.384 92.3188 463.791 85.8769 468.829 79.1677C471.288 75.8977 471.44 72.5253 469.284 69.0504ZM337.692 94.6309C338.594 94.8235 339.534 94.7775 340.419 94.4973C349.979 91.4323 357.722 85.2532 363.647 75.9601C366.347 71.7234 361.308 66.5912 357.82 65.2681C357.401 65.1077 356.982 65.1122 356.564 65.2815C354.176 66.2794 352.149 67.7763 350.482 69.7721C345.337 75.9601 338.374 84.0459 336.062 91.9045C335.625 93.3925 336.169 94.3013 337.692 94.6309Z" fill="white"/>
<path d="M235.036 37.6013C235.126 37.4206 235.167 37.2195 235.155 37.0182C235.143 36.8169 235.079 36.6225 234.97 36.4545C234.86 36.2865 234.708 36.1509 234.53 36.0613C234.352 35.9717 234.153 35.9313 233.954 35.9441C227.966 36.3005 222.353 35.7079 217.114 34.1665C214.361 33.3646 210.819 30.5446 211.728 27.2702C212.997 22.6192 216.566 19.278 221.284 19.9328C225.641 20.5343 242.2 23.381 244.592 19.3581C246.757 15.7362 252.798 2.43811 258.599 5.61897C260.617 6.72826 263.744 8.74637 264.212 11.1788C264.573 13.1033 262.728 16.6718 261.967 18.5162C261.919 18.6283 261.897 18.7496 261.903 18.8714C261.908 18.9932 261.941 19.1126 261.998 19.2211C262.056 19.3295 262.137 19.4244 262.235 19.4989C262.333 19.5734 262.447 19.6257 262.568 19.6522C268.315 20.8684 277.35 24.7576 271.469 32.536C270.418 33.926 269.157 34.612 267.687 34.5942C264.007 34.5497 259.819 34.4917 255.124 34.4205C254.577 34.4118 254.039 34.5559 253.57 34.8368C253.1 35.1178 252.717 35.5243 252.464 36.0109C240.293 59.6669 229.721 83.9822 220.749 108.957C220.357 110.062 220.696 110.855 221.765 111.336C232.417 116.161 238.19 125.128 239.834 136.435C241.438 147.466 239.763 158.314 234.809 168.979C228.22 183.172 213.973 194.987 197.935 194.052C189.622 193.57 182.196 190.296 175.656 184.228C172.435 181.248 167.316 173.683 170.777 169.219C172.898 166.493 175.544 164.8 178.716 164.141C179.43 163.994 180.173 164.086 180.829 164.402C181.486 164.719 182.021 165.242 182.351 165.892C186.468 173.977 192.602 180.593 202.426 178.735C209.776 177.345 216.686 171.197 220.041 164.127C224.077 155.654 225.382 147.056 223.957 138.333C222.366 128.67 216.405 126.211 208.306 123.324C203.722 121.68 202.733 117.992 204.016 113.514C206.297 105.504 208.671 98.354 211.14 92.0635C219.069 71.8914 227.035 53.7373 235.036 37.6013Z" fill="white"/>
<path d="M89.0121 51.9119L70.2478 51.9447C66.9705 51.9504 64.3184 54.6118 64.3241 57.8891L64.3266 59.3325C64.3323 62.6097 66.9937 65.2619 70.271 65.2561L89.0354 65.2234C92.3126 65.2177 94.9648 62.5563 94.959 59.279L94.9565 57.8356C94.9508 54.5583 92.2894 51.9062 89.0121 51.9119Z" fill="white"/>
<path d="M652.878 52.6349C661.365 53.7843 657.596 64.8104 650.673 65.2648C645.541 65.5945 640.516 65.5499 635.597 65.1312C627.832 64.4629 624.799 53.3834 634.02 52.1805C639.277 51.4945 645.563 51.6459 652.878 52.6349Z" fill="white"/>
<path d="M576.75 55.5372C577.695 53.3543 579.379 52.2227 581.802 52.1425C590.436 51.8574 600.108 51.8396 610.817 52.0891C614.898 52.1782 617.045 54.2631 617.259 58.3439C617.268 58.4686 617.273 58.5533 617.273 58.5978C617.495 62.6875 615.633 64.8081 611.686 64.9595C604.139 65.2535 596.686 65.4763 589.326 65.6278C584.916 65.7169 581.428 64.9818 578.862 63.4226C575.948 61.6495 575.244 59.021 576.75 55.5372Z" fill="white"/>
<path d="M675.392 65.6268C680.618 65.6816 684.887 62.6086 684.927 58.7632C684.967 54.9177 680.764 51.756 675.538 51.7013C670.312 51.6466 666.044 54.7196 666.003 58.565C665.963 62.4104 670.167 65.5721 675.392 65.6268Z" fill="white"/>
<path d="M50.5441 76.0664L33.6508 76.0369C30.5728 76.0315 28.0733 78.5224 28.0679 81.6004L28.0639 83.8724C28.0586 86.9504 30.5494 89.4499 33.6274 89.4553L50.5207 89.4848C53.5987 89.4902 56.0982 86.9993 56.1036 83.9214L56.1076 81.6493C56.1129 78.5713 53.6221 76.0718 50.5441 76.0664Z" fill="white"/>
<path d="M116.205 76.1562L73.4908 76.0816C70.5162 76.0764 68.1005 78.4837 68.0953 81.4583L68.0908 84.0511C68.0856 87.0258 70.4928 89.4414 73.4675 89.4466L116.182 89.5211C119.156 89.5263 121.572 87.1191 121.577 84.1445L121.582 81.5517C121.587 78.577 119.18 76.1614 116.205 76.1562Z" fill="white"/>
<path d="M599.659 88.0957C599.3 87.9562 598.972 87.7458 598.697 87.4771C598.421 87.2083 598.203 86.8869 598.056 86.532C596.345 82.4824 596.973 76.388 602.72 76.2143C609.919 76.0004 616.53 75.9871 622.554 76.1742C626.599 76.2989 628.407 78.3749 627.98 82.4022C627.971 82.5181 627.962 82.5983 627.953 82.6428C627.525 86.6701 625.293 88.8263 621.257 89.1114C615.069 89.5525 605.647 90.4212 599.659 88.0957Z" fill="white"/>
<path d="M638.977 82.0271C638.986 82.0092 638.995 81.9335 639.004 81.7999C639.307 78.2359 641.089 76.3648 644.35 76.1866C648.137 75.9816 652.382 75.9594 657.087 76.1197C660.134 76.2178 662.201 77.229 663.288 79.1536C664.339 81.0247 664.304 83.0161 663.181 85.1277C662.139 87.1058 660.722 88.3398 658.931 88.8298C657.399 89.2486 655.737 89.3243 653.946 89.057C650.56 88.5492 647.268 88.1794 644.069 87.9477C640.363 87.6804 638.665 85.7069 638.977 82.0271Z" fill="white"/>
<path d="M0 109.224V106.471C1.07811 103.682 3.52835 101.993 7.35073 101.405C11.5562 100.764 14.648 102.154 16.626 105.575C18.9381 109.571 14.0733 114.142 10.3445 114.851C5.56873 115.768 2.12057 113.893 0 109.224Z" fill="white"/>
<path d="M611.686 101.788L591.222 101.109C588.235 101.01 585.732 103.352 585.633 106.34L585.58 107.942C585.481 110.93 587.822 113.433 590.81 113.532L611.274 114.211C614.262 114.31 616.764 111.968 616.863 108.98L616.917 107.377C617.016 104.39 614.674 101.887 611.686 101.788Z" fill="white"/>
<path d="M34.5586 101.734L29.821 101.294C26.4843 100.985 23.5284 103.439 23.2188 106.776L23.1225 107.814C22.813 111.15 25.267 114.106 28.6038 114.416L33.3414 114.855C36.6782 115.165 39.6341 112.711 39.9436 109.374L40.0399 108.336C40.3495 104.999 37.8954 102.043 34.5586 101.734Z" fill="white"/>
<path d="M49.6505 107.687C49.695 107.286 49.744 106.881 49.7975 106.471C50.2163 103.174 52.0874 101.503 55.4108 101.459C65.2652 101.316 75.084 101.41 84.8671 101.739C91.8971 101.993 90.3735 113.354 85.3617 114.316C82.6708 114.833 79.6548 115.051 76.3136 114.971C68.4995 114.775 61.082 114.218 54.0609 113.3C50.7553 112.872 49.2852 111.001 49.6505 107.687Z" fill="white"/>
</svg>
