<svg width="33" height="33" viewBox="0 0 33 33" fill="none" xmlns="http://www.w3.org/2000/svg">
<g clip-path="url(#clip0_10_262)">
<path d="M30.428 1H3.572C2.152 1 1 2.152 1 3.572V30.428C1 31.848 2.152 33 3.572 33H30.428C31.848 33 33 31.848 33 30.428V3.572C33 2.152 31.848 1 30.428 1ZM30.428 30.44C12.516 30.436 3.56 30.432 3.56 30.428C3.564 12.516 3.568 3.56 3.572 3.56C21.484 3.564 30.44 3.568 30.44 3.572C30.436 21.484 30.432 30.44 30.428 30.44ZM5.744 12.996H10.492V28.268H5.744V12.996ZM8.12 10.908C9.636 10.908 10.872 9.676 10.872 8.156C10.872 7.7946 10.8008 7.43674 10.6625 7.10286C10.5242 6.76897 10.3215 6.46559 10.066 6.21004C9.81041 5.9545 9.50703 5.75178 9.17315 5.61348C8.83926 5.47518 8.4814 5.404 8.12 5.404C7.7586 5.404 7.40074 5.47518 7.06686 5.61348C6.73297 5.75178 6.42959 5.9545 6.17404 6.21004C5.9185 6.46559 5.71578 6.76897 5.57748 7.10286C5.43918 7.43674 5.368 7.7946 5.368 8.156C5.364 9.676 6.596 10.908 8.12 10.908ZM18.212 20.712C18.212 18.72 18.592 16.792 21.06 16.792C23.492 16.792 23.528 19.068 23.528 20.84V28.268H28.272V19.892C28.272 15.78 27.384 12.616 22.58 12.616C20.272 12.616 18.724 13.884 18.088 15.084H18.024V12.996H13.468V28.268H18.212V20.712Z" fill="#F0E3CA"/>
</g>
<defs>
<clipPath id="clip0_10_262">
<rect width="32" height="32" fill="white" transform="translate(0.5 0.913818)"/>
</clipPath>
</defs>
</svg>
