<svg width="33" height="33" viewBox="0 0 33 33" fill="none" xmlns="http://www.w3.org/2000/svg">
<path d="M27.1667 30.2472H5.83332C5.12608 30.2472 4.4478 29.9662 3.94771 29.4662C3.44761 28.966 3.16666 28.2877 3.16666 27.5805V12.9792C3.18882 12.5385 3.31836 12.1098 3.54401 11.7305C3.76965 11.3513 4.08455 11.0329 4.46132 10.8032L15.128 4.40319C15.5423 4.15477 16.0163 4.02356 16.4993 4.02356C16.9824 4.02356 17.4563 4.15477 17.8707 4.40319L28.5373 10.8032C29.3386 11.2872 29.8307 12.1539 29.8333 13.0899V27.5805C29.8333 28.2877 29.5524 28.966 29.0523 29.4662C28.5522 29.9662 27.8739 30.2472 27.1667 30.2472ZM5.83332 14.0712V27.5805H27.1667V14.0712L16.5 21.1818L5.83332 14.0712ZM16.5 6.68985L7.58799 12.0365L16.5 17.9779L25.4107 12.0365L16.5 6.68985Z" fill="#F0E3CA"/>
</svg>
