<svg width="220" height="172" viewBox="0 0 220 172" fill="none" xmlns="http://www.w3.org/2000/svg">
<path d="M24.2009 22.4446C23.7875 10.7648 33.0468 -0.00488281 45.5641 -0.00488281H173.824C186.341 -0.00488281 195.6 10.7648 195.187 22.4446C194.789 33.6633 195.306 48.1966 199.028 60.0461C202.762 71.9332 209.058 79.4449 219.37 80.4116V91.3578C209.058 92.3227 202.762 99.8361 199.028 111.723C195.306 123.573 194.789 138.106 195.187 149.325C195.6 161.005 186.341 171.773 173.824 171.773H45.5641C33.0468 171.773 23.7875 161.003 24.2009 149.325C24.5985 138.106 24.0823 123.573 20.3587 111.723C16.6263 99.8378 10.3127 92.3244 0 91.3578V80.4116C10.3127 79.4467 16.6263 71.9332 20.3587 60.0461C24.0823 48.1966 24.5968 33.6633 24.2009 22.4446Z" fill="url(#paint0_linear_80_318)"/>
<g filter="url(#filter0_d_80_318)">
<path d="M115.111 132.171C135.375 132.171 147.586 122.421 147.586 106.34C147.586 94.1836 138.873 85.383 125.936 83.9899V83.4834C135.441 81.9639 142.9 73.2901 142.9 63.6032C142.9 49.8009 131.811 40.8101 114.913 40.8101H76.8918V132.171H115.111ZM91.6777 52.3965H111.348C122.042 52.3965 128.114 57.0816 128.114 65.5656C128.114 74.6196 121.051 79.6845 108.246 79.6845H91.6777V52.3965ZM91.6777 120.585V90.511H111.216C125.21 90.511 132.471 95.5759 132.471 105.453C132.471 115.33 125.408 120.585 112.074 120.585H91.6777Z" fill="url(#paint1_linear_80_318)"/>
<path d="M115.111 132.171C135.375 132.171 147.586 122.421 147.586 106.34C147.586 94.1836 138.873 85.383 125.936 83.9899V83.4834C135.441 81.9639 142.9 73.2901 142.9 63.6032C142.9 49.8009 131.811 40.8101 114.913 40.8101H76.8918V132.171H115.111ZM91.6777 52.3965H111.348C122.042 52.3965 128.114 57.0816 128.114 65.5656C128.114 74.6196 121.051 79.6845 108.246 79.6845H91.6777V52.3965ZM91.6777 120.585V90.511H111.216C125.21 90.511 132.471 95.5759 132.471 105.453C132.471 115.33 125.408 120.585 112.074 120.585H91.6777Z" stroke="white" stroke-width="0.42102"/>
</g>
<defs>
<filter id="filter0_d_80_318" x="69.9451" y="35.5474" width="84.5881" height="105.255" filterUnits="userSpaceOnUse" color-interpolation-filters="sRGB">
<feFlood flood-opacity="0" result="BackgroundImageFix"/>
<feColorMatrix in="SourceAlpha" type="matrix" values="0 0 0 0 0 0 0 0 0 0 0 0 0 0 0 0 0 0 127 0" result="hardAlpha"/>
<feOffset dy="1.68408"/>
<feGaussianBlur stdDeviation="3.36816"/>
<feColorMatrix type="matrix" values="0 0 0 0 0 0 0 0 0 0 0 0 0 0 0 0 0 0 0.15 0"/>
<feBlend mode="normal" in2="BackgroundImageFix" result="effect1_dropShadow_80_318"/>
<feBlend mode="normal" in="SourceGraphic" in2="effect1_dropShadow_80_318" result="shape"/>
</filter>
<linearGradient id="paint0_linear_80_318" x1="32.5979" y1="4.54129" x2="221.684" y2="157.289" gradientUnits="userSpaceOnUse">
<stop stop-color="#9013FE"/>
<stop offset="1" stop-color="#6610F2"/>
</linearGradient>
<linearGradient id="paint1_linear_80_318" x1="83.5808" y1="46.8222" x2="125.324" y2="118.669" gradientUnits="userSpaceOnUse">
<stop stop-color="white"/>
<stop offset="1" stop-color="#F1E5FC"/>
</linearGradient>
</defs>
</svg>
