<svg width="167" height="167" viewBox="0 0 167 167" fill="none" xmlns="http://www.w3.org/2000/svg">
<path d="M0.750488 -0.00634766H166.992V166.237H0.750488V-0.00634766Z" fill="#F0DB4F"/>
<path d="M153.387 126.587C152.169 119.003 147.223 112.633 132.574 106.693C127.486 104.354 121.812 102.68 120.122 98.8233C119.522 96.579 119.442 95.3147 119.822 93.9562C120.912 89.5473 126.175 88.1729 130.346 89.4371C133.033 90.3375 135.576 92.4078 137.109 95.7105C144.283 91.0652 144.269 91.0958 149.278 87.9033C147.444 85.0601 146.465 83.748 145.265 82.5316C140.95 77.7124 135.071 75.2304 125.669 75.4203L120.771 76.0537C116.078 77.2396 111.606 79.703 108.983 83.0057C101.113 91.935 103.358 107.563 112.934 113.994C122.368 121.075 136.226 122.686 137.997 129.307C139.719 137.413 132.039 140.037 124.406 139.105C118.781 137.935 115.652 135.076 112.27 129.877C106.044 133.48 106.044 133.48 99.6432 137.161C101.161 140.479 102.756 141.981 105.3 144.856C117.343 157.071 147.477 156.471 152.882 137.983C153.101 137.348 154.556 133.114 153.387 126.587ZM91.1242 76.399H75.5749L75.5112 116.6C75.5112 125.149 75.9534 132.987 74.563 135.389C72.2882 140.114 66.3933 139.528 63.7068 138.612C60.9725 137.268 59.5821 135.357 57.9712 132.656C57.529 131.881 57.197 131.28 57.0855 131.234L44.4431 138.976C46.5453 143.291 49.6422 147.036 53.6088 149.468C59.5343 153.025 67.4982 154.115 75.8272 152.203C81.248 150.624 85.9252 147.353 88.374 142.374C91.9144 135.847 91.1548 127.947 91.1229 119.209C91.2026 104.953 91.1242 90.7 91.1242 76.399Z" fill="#323330"/>
</svg>
