<svg width="183" height="182" viewBox="0 0 183 182" fill="none" xmlns="http://www.w3.org/2000/svg">
<path fill-rule="evenodd" clip-rule="evenodd" d="M125.017 142.385C125.257 141.923 125.487 141.515 125.683 141.093C125.807 140.822 125.998 140.768 126.266 140.775C127.877 140.821 129.488 140.871 131.101 140.886C132.47 140.901 133.842 140.875 135.213 140.859C136.757 140.841 138.301 140.76 139.844 140.804C141.899 140.864 143.901 141.266 145.759 142.18C147.978 143.274 149.658 144.939 150.802 147.133C151.522 148.524 151.971 150.039 152.126 151.597C152.371 153.884 152.21 156.118 151.485 158.304C150.586 161.014 148.88 163.089 146.51 164.643C144.685 165.839 142.685 166.546 140.541 166.949C138.271 167.377 135.995 167.239 133.718 167.247C131.222 167.256 128.726 167.202 126.229 167.174C125.793 167.17 125.73 167.087 125.846 166.671L125.952 166.287C126.195 165.522 126.326 165.488 127.102 165.36C127.653 165.273 128.179 165.073 128.648 164.772C128.91 164.599 129.018 164.147 129.12 163.798C129.208 163.494 129.213 163.16 129.215 162.839C129.251 157.969 129.288 153.1 129.308 148.233C129.313 147.002 129.282 145.771 129.215 144.542C129.167 143.682 128.708 143.093 127.684 142.89C126.888 142.732 126.086 142.61 125.285 142.469L125.017 142.385ZM147.875 154.177C147.767 153.207 147.714 152.229 147.541 151.273C147.125 148.98 146.121 146.982 144.358 145.416C141.508 142.887 138.075 142.497 134.478 142.799C133.659 142.867 133.482 143.147 133.47 143.989C133.45 145.183 133.43 146.378 133.428 147.572C133.423 151.36 133.423 155.148 133.428 158.936C133.43 160.013 133.441 161.091 133.472 162.166C133.507 163.267 133.906 164.198 134.984 164.625C136.683 165.297 138.47 165.377 140.253 165.102C143.101 164.666 145.093 163.007 146.43 160.52C147.488 158.546 147.787 156.392 147.875 154.177ZM154.798 167.074C154.764 166.484 155.005 165.997 155.304 165.549C155.385 165.428 155.664 165.434 155.856 165.395L157.485 165.072C158.061 164.95 158.364 164.563 158.445 163.999C158.499 163.626 158.55 163.25 158.554 162.873C158.593 159.891 158.621 156.91 158.638 153.928C158.652 150.942 158.641 147.956 158.641 144.97L158.628 144.4C158.57 143.44 158.106 142.942 157.154 142.802L155.088 142.487C154.833 142.453 154.741 142.331 154.833 142.105C154.993 141.72 155.145 141.32 155.369 140.973C155.453 140.845 155.736 140.795 155.927 140.8C156.914 140.814 157.9 140.888 158.887 140.886L167.477 140.835C169.132 140.834 170.73 141.122 172.214 141.914C173.848 142.785 174.762 144.131 175.024 145.965C175.297 147.892 174.713 149.516 173.305 150.805C172.726 151.337 171.977 151.684 171.306 152.116L171.087 152.253C171.71 152.482 172.302 152.679 172.88 152.915C174.569 153.608 175.913 154.69 176.624 156.418C177.185 157.781 177.185 159.203 176.852 160.616C176.335 162.829 174.877 164.3 172.982 165.414C171.203 166.459 169.278 167.067 167.228 167.17C165.337 167.265 163.437 167.229 161.542 167.251L160.444 167.256C158.617 167.215 156.791 167.169 154.964 167.12L154.798 167.074ZM162.671 158.417H162.689C162.689 159.352 162.676 160.288 162.693 161.223C162.705 161.829 162.683 162.452 162.814 163.035C163.011 163.907 163.409 164.693 164.387 164.943C165.695 165.287 167.061 165.347 168.394 165.119C170.067 164.828 171.402 163.989 172.135 162.395C172.678 161.211 172.759 159.955 172.573 158.673C172.325 156.983 171.428 155.758 169.936 154.954C168.958 154.427 167.915 154.104 166.803 154.061C165.557 154.015 164.31 154.012 163.065 153.973C162.715 153.963 162.666 154.141 162.668 154.428C162.675 155.756 162.671 157.086 162.671 158.417ZM165.322 152.054C166.004 152.02 166.774 152.01 167.541 151.933C169.008 151.786 170.042 151.049 170.581 149.645C170.855 148.933 170.844 148.199 170.851 147.458C170.872 145.529 169.746 143.948 167.913 143.294C166.498 142.789 165.04 142.78 163.572 142.82C162.978 142.836 162.712 143.096 162.703 143.695L162.615 151.499C162.611 151.809 162.745 151.943 163.046 151.953L165.322 152.054Z" fill="#94795D"/>
<path fill-rule="evenodd" clip-rule="evenodd" d="M15.9362 165.575L15.8324 166.917C14.8656 166.917 13.974 166.91 13.0825 166.92C11.4033 166.937 9.72406 166.964 8.04341 166.988L7.88131 166.998C7.64102 166.969 7.2045 166.969 7.19313 166.898C7.12203 166.499 7.14478 166.079 7.16327 165.666C7.16469 165.619 7.3282 165.559 7.42347 165.536L8.73017 165.245C9.54491 165.033 9.83213 164.682 9.87052 163.84C9.91459 162.891 9.95867 161.942 9.96294 160.993C9.97574 158.659 9.96152 156.327 9.97147 153.992C9.97289 153.446 9.78378 153.039 9.27475 152.817C8.66988 152.549 8.06077 152.29 7.44764 152.041C7.15758 151.925 6.78078 151.861 6.81491 151.471C6.84903 151.074 7.21445 150.97 7.55855 150.892C8.98327 150.567 10.4094 150.25 11.8299 149.903C12.2877 149.79 12.7256 149.601 13.2731 149.411C13.3015 149.706 13.3541 149.988 13.3484 150.269L13.2645 151.607C13.2631 151.758 13.3413 151.96 13.4536 152.044C13.5219 152.097 13.7508 152.001 13.8646 151.913C15.0788 150.989 16.3642 150.191 17.8302 149.726C20.1009 149.005 22.0503 149.674 23.4153 151.632C23.8959 152.321 23.8973 152.321 24.5642 151.839C25.7088 151.007 26.906 150.274 28.2454 149.79C31.1858 148.728 34.0111 150.076 35.0334 153.038C35.406 154.113 35.5482 155.223 35.5453 156.358L35.5183 163.891C35.5169 164.512 35.723 164.866 36.3145 165.06C36.9786 165.277 37.6667 165.427 38.4147 165.623L38.2412 166.918C37.3909 166.918 36.6089 166.912 35.8268 166.92C33.9158 166.937 32.0048 166.947 30.0953 166.991C29.7625 166.999 29.6758 166.917 29.6588 166.605C29.6033 165.609 29.5948 165.61 30.5332 165.385L30.8489 165.304C31.766 165.054 32.0717 164.773 32.0788 163.843C32.1001 161.172 32.1556 158.495 32.0205 155.83C31.8797 153.066 29.6858 151.595 27.007 152.303C26.1424 152.54 25.3281 152.932 24.604 153.46C24.3552 153.638 24.3082 153.843 24.3281 154.154C24.4035 155.331 24.4504 156.51 24.4604 157.689C24.4774 159.752 24.4518 161.815 24.4604 163.88C24.4632 164.716 24.749 165.036 25.5751 165.229L26.8022 165.512L27.0297 165.563C27.0468 165.956 27.0624 166.348 27.0439 166.74C27.0325 166.986 26.842 167.008 26.6287 167.004C25.4358 166.974 24.2414 166.934 23.0485 166.937C21.5967 166.94 20.1464 166.981 18.6961 167.006H18.3548C18.3548 166.59 18.3349 166.192 18.3691 165.795C18.3762 165.7 18.544 165.566 18.6591 165.536L20.0895 165.233C20.6967 165.084 20.9867 164.773 21.0209 164.155C21.183 161.298 21.2995 158.438 21.0308 155.582C20.9653 155.017 20.8088 154.468 20.5673 153.954C19.835 152.335 18.1871 151.66 16.286 152.146C15.3831 152.377 14.5684 152.79 13.7977 153.312C13.6297 153.416 13.4916 153.561 13.3973 153.735C13.3031 153.908 13.2558 154.103 13.2603 154.3C13.2603 157.151 13.2702 160.002 13.2787 162.852L13.2944 163.951C13.3115 164.717 13.6371 165.121 14.3978 165.286C14.8869 165.397 15.3817 165.472 15.9362 165.575Z" fill="#50382B"/>
<path fill-rule="evenodd" clip-rule="evenodd" d="M101.9 149.702C102.12 150.774 102.116 151.738 101.328 152.469C100.546 153.196 99.5565 152.951 98.5911 152.789C98.6806 153.298 98.7802 153.73 98.8285 154.168C99.1797 157.423 97.7792 159.839 94.7605 161.219C93.6202 161.74 92.4102 161.933 91.1746 162.033C90.5603 162.081 90.0228 162.55 89.9645 163.055C89.9048 163.567 90.2262 164.093 90.8688 164.247C91.6267 164.427 92.4173 164.478 93.195 164.568C94.8643 164.758 96.5521 164.845 98.2015 165.144C100.695 165.593 102.087 167.77 101.648 170.275C101.257 172.505 99.966 174.127 98.1659 175.371C95.1331 177.473 91.8059 178.087 88.2626 177.015C86.2364 176.401 84.8074 175.068 84.314 172.913C84.0666 171.834 84.3296 170.857 85.1415 170.125C86.107 169.257 87.1578 168.484 88.1687 167.665L88.4957 167.336L88.1204 167.073C87.0895 166.584 86.2648 165.914 85.9449 164.751C85.8354 164.357 85.9492 164.099 86.2833 163.897C86.8521 163.554 87.418 163.206 87.9796 162.852C88.2441 162.687 88.5057 162.516 88.7517 162.326C89.0872 162.07 89.0574 161.879 88.6564 161.731C87.7237 161.387 86.8947 160.888 86.252 160.12C85.1785 158.839 84.8742 157.313 84.9624 155.702C85.1003 153.186 86.4667 151.528 88.6877 150.461C91.3281 149.195 93.9771 149.115 96.6687 150.27C97.664 150.696 98.7133 150.787 99.7812 150.713C100.579 150.656 101.276 150.355 101.9 149.702ZM92.1699 167.733C90.1878 167.716 89.5664 167.96 88.4033 169.145C87.1009 170.473 87.108 172.314 88.4076 173.648C89.3944 174.659 90.6257 175.132 91.995 175.275C93.5946 175.44 95.17 175.373 96.6232 174.572C98.173 173.715 98.9437 172.122 98.5953 170.518C98.3067 169.195 97.3313 168.589 96.144 168.241C94.7932 167.845 93.3969 167.77 92.1699 167.733ZM88.2768 155.067C88.3493 155.617 88.3791 156.175 88.5014 156.713C88.8185 158.11 89.4256 159.337 90.8148 159.958C92.4457 160.69 94.5288 160.376 95.2425 158.087C95.7302 156.564 95.6734 154.918 95.0819 153.432C94.8312 152.752 94.3799 152.165 93.788 151.748C92.3718 150.76 89.8167 150.629 88.7758 152.813C88.4374 153.523 88.3052 154.278 88.2768 155.067Z" fill="#4F382B"/>
<path fill-rule="evenodd" clip-rule="evenodd" d="M68.2711 149.351C68.3237 149.594 68.4289 149.87 68.4317 150.147C68.436 150.675 68.3791 151.202 68.3493 151.73V152.188L68.7957 151.846C70.0185 150.84 71.3323 149.982 72.8623 149.52C75.6236 148.688 78.382 150.2 79.2821 153.012C79.6233 154.082 79.7584 155.181 79.7712 156.298C79.7996 158.781 79.8167 161.263 79.8423 163.746C79.8508 164.638 79.9532 164.797 80.7964 165.054C81.2762 165.197 81.7656 165.306 82.2609 165.38C82.5325 165.422 82.6491 165.529 82.6348 165.795L82.6377 166.039C82.6277 167.067 82.5566 167.114 81.5599 167.112C79.174 167.107 76.7895 167.122 74.4036 167.141C73.6927 167.147 73.6912 167.168 73.6201 166.466L73.6059 166.062C73.65 165.457 73.6642 165.462 74.26 165.374C74.661 165.314 75.0591 165.222 75.4501 165.12C75.8525 165.016 76.0459 164.719 76.0999 164.32C76.1269 164.119 76.1625 163.917 76.161 163.715C76.1269 161.002 76.171 158.286 76.0231 155.577C75.9037 153.386 74.2316 152.081 72.0319 152.23C70.9716 152.304 69.9524 152.669 69.0872 153.287C68.5 153.698 68.382 154.291 68.3848 154.929C68.3962 157.466 68.4203 160.002 68.4474 162.54C68.4531 163.096 68.4687 163.652 68.5213 164.204C68.5768 164.807 68.7886 165.05 69.3801 165.181C69.946 165.306 70.5233 165.378 71.1276 165.479L71.1788 165.946C71.1987 167.033 71.0849 167.114 70.0285 167.11C67.5615 167.1 65.0946 167.116 62.6291 167.143C62.2409 167.149 62.0759 167.026 62.0859 166.648L62.0802 166.486C62.0162 165.506 62.0447 165.469 62.9717 165.31L63.4097 165.222C64.4135 164.996 64.6709 164.729 64.6851 163.709C64.732 160.48 64.7491 157.252 64.7818 154.023C64.786 153.56 64.6111 153.2 64.1789 153.008C63.5723 152.742 62.9622 152.484 62.3489 152.234C62.0105 152.095 61.6238 152.007 61.611 151.539C61.6025 151.209 61.9551 150.918 62.4371 150.82C63.4054 150.624 64.3822 150.46 65.3391 150.22C66.2918 149.982 67.2274 149.664 68.2711 149.351Z" fill="#4F372B"/>
<path fill-rule="evenodd" clip-rule="evenodd" d="M121.613 157.786C121.567 160.801 120.784 163.24 118.651 165.07C115.949 167.392 111.735 168.181 108.29 166.445C106.819 165.704 105.739 164.568 105.035 163.094C103.956 160.826 103.686 158.441 104.249 155.998C104.806 153.583 106.269 151.832 108.459 150.699C110.711 149.535 113.083 149.08 115.584 149.691C118.748 150.463 121.021 153.042 121.473 156.327C121.554 156.903 121.586 157.486 121.613 157.786ZM117.948 159.419L117.826 159.405C117.826 159.121 117.842 158.836 117.823 158.552C117.72 156.78 117.321 155.093 116.295 153.61C115.321 152.205 113.994 151.376 112.268 151.255C110.336 151.118 108.712 152.199 108.142 154.173C107.286 157.136 107.576 160.024 109.08 162.738C109.736 163.921 110.707 164.794 112.008 165.253C114.557 166.151 116.818 164.989 117.482 162.378C117.727 161.414 117.798 160.406 117.948 159.419Z" fill="#4F382B"/>
<path fill-rule="evenodd" clip-rule="evenodd" d="M58.9848 158.019C58.9321 160.183 58.4217 162.183 57.0851 163.922C55.6533 165.785 53.6854 166.78 51.4474 167.2C48.8013 167.694 46.3158 167.245 44.1901 165.469C43.1806 164.625 42.491 163.543 42.036 162.311C41.2895 160.292 41.1033 158.223 41.5625 156.115C42.0531 153.858 43.3271 152.133 45.302 150.976C47.5856 149.641 50.0497 149.045 52.6816 149.645C56.0656 150.419 58.0193 152.624 58.7416 155.963C58.8866 156.637 58.9066 157.333 58.9848 158.019ZM55.2793 159.446L55.1812 159.432V159.025C55.1258 157.04 54.7376 155.149 53.5532 153.5C52.6759 152.276 51.5014 151.508 49.9957 151.293C47.5415 150.943 45.9376 152.399 45.4058 154.377C44.712 156.961 44.9295 159.513 46.003 161.963C46.6727 163.49 47.7306 164.68 49.3558 165.257C51.8896 166.157 54.1845 164.966 54.8258 162.365C55.0618 161.414 55.1329 160.422 55.2793 159.446Z" fill="#4F372B"/>
<path fill-rule="evenodd" clip-rule="evenodd" d="M118.054 47.6953C119.798 52.7387 121.052 57.8873 121.466 63.2222C121.978 69.8424 121.745 76.4172 120.349 82.928L120.169 83.4484C119.732 83.4498 119.285 83.3943 118.857 83.4612C115.241 84.0299 111.63 84.6186 108.017 85.2044C104.281 85.8101 100.543 86.3916 96.8152 87.0372C95.4943 87.2647 93.8591 86.9931 93.3259 88.8188L93.07 88.9055L93.2506 77.9884L93.0671 51.6467L94.8075 51.3481C97.6527 50.8832 100.498 50.4097 103.347 49.9561C106.746 49.4172 110.147 48.8911 113.548 48.365C115.049 48.1347 116.552 47.92 118.054 47.6953Z" fill="#439934"/>
<path fill-rule="evenodd" clip-rule="evenodd" d="M89.4783 120.733C87.6426 119.154 85.743 117.646 83.9842 115.985C74.5173 107.056 67.5914 96.5437 64.1803 83.8705C63.2404 80.3841 62.6148 76.8394 62.4129 73.2363C62.2707 70.7139 62.0674 68.1702 62.2465 65.6606C62.72 58.9877 63.6855 52.3789 65.642 45.9506L65.75 45.8013C65.9406 46.0544 66.2136 46.279 66.3103 46.5648C68.2213 52.1898 70.1166 57.8204 72.0034 63.4553C77.9312 81.159 83.8519 98.8671 89.7897 116.568C89.9063 116.913 90.2063 117.196 90.4224 117.508L89.4783 120.733Z" fill="#45A538"/>
<path fill-rule="evenodd" clip-rule="evenodd" d="M118.054 47.6955C116.551 47.9188 115.048 48.1349 113.548 48.3652C110.147 48.8913 106.745 49.4174 103.347 49.9563C100.499 50.4085 97.654 50.882 94.8074 51.3483L93.0671 51.6469L93.0528 50.5123C92.9945 49.5795 92.8979 48.6468 92.8851 47.714L92.6903 29.8638C92.6448 26.1399 92.5765 22.416 92.5011 18.6935C92.4628 16.3799 92.3959 14.0668 92.3007 11.7548C92.2438 10.5135 92.0433 9.27789 91.9637 8.03659C91.9168 7.32281 91.9793 6.60334 91.995 5.88672C92.8822 7.60577 93.751 9.33761 94.6624 11.0439C96.1028 13.7412 98.3991 15.7289 100.468 17.8973C108.638 26.4726 114.438 36.4371 118.054 47.6955Z" fill="#46A037"/>
<path fill-rule="evenodd" clip-rule="evenodd" d="M93.0713 88.9056L93.3273 88.8189C93.8605 86.9932 95.4956 87.2648 96.8166 87.0373C100.545 86.3918 104.283 85.8102 108.018 85.2045C111.631 84.6201 115.243 84.0314 118.858 83.4613C119.286 83.3944 119.733 83.4499 120.171 83.4485C119.495 85.86 118.964 88.3241 118.106 90.6687C117.132 93.3277 115.955 95.924 114.705 98.4692C112.833 102.265 110.517 105.824 107.805 109.073C105.72 111.579 103.397 113.898 101.069 116.186C99.7812 117.45 98.2654 118.481 96.8521 119.618L96.4853 119.368L95.1672 118.242L93.8036 115.25C92.8719 111.762 92.3635 108.173 92.2893 104.563L92.3149 103.955L92.5012 101.319C92.5623 100.419 92.6448 99.5199 92.6832 98.6199C92.8197 95.3837 92.942 92.1447 93.0713 88.9056Z" fill="#409433"/>
<path fill-rule="evenodd" clip-rule="evenodd" d="M93.0713 88.9056C92.9434 92.1447 92.8211 95.3851 92.6832 98.6241C92.6448 99.5256 92.5637 100.424 92.5012 101.323L91.6708 101.637C89.8252 96.2041 87.9782 90.828 86.1724 85.4391C83.185 76.5225 80.2346 67.5932 77.2515 58.6737C74.8427 51.4753 72.4169 44.2825 69.9744 37.0954C69.8592 36.7598 69.5322 36.4953 69.3047 36.1982L74.6225 26.4199C74.8059 26.737 75.0462 27.0342 75.1614 27.3754C77.6212 34.6554 80.0768 41.9368 82.5111 49.2254C85.679 58.7093 88.8256 68.1975 91.9907 77.6828C92.1172 78.061 92.3248 78.4108 92.5239 78.8359L93.2519 77.9885L93.0713 88.9056Z" fill="#4FAA41"/>
<path fill-rule="evenodd" clip-rule="evenodd" d="M69.3035 36.1982C69.5324 36.4954 69.8594 36.7599 69.9732 37.0954C72.4159 44.2825 74.8417 51.4753 77.2503 58.6738C80.2334 67.5932 83.1838 76.5226 86.1712 85.4392C87.9769 90.8281 89.824 96.2028 91.6696 101.637L92.4999 101.323L92.3137 103.959L92.1445 104.566C91.8558 107.451 91.6127 110.342 91.2601 113.221C91.0837 114.664 90.707 116.081 90.4212 117.508C90.2065 117.197 89.905 116.914 89.7884 116.568C83.8493 98.8674 77.93 81.1593 72.0022 63.4556C70.1162 57.8215 68.2184 52.1913 66.309 46.5651C66.2123 46.2793 65.9393 46.0547 65.7488 45.8016L69.3035 36.1982Z" fill="#4AA73C"/>
<path fill-rule="evenodd" clip-rule="evenodd" d="M93.2505 77.9883L92.5225 78.8357C92.3234 78.4106 92.1158 78.0608 91.9893 77.6826C88.8242 68.1973 85.6776 58.7091 82.5097 49.2252C80.0725 41.9376 77.6227 34.6542 75.16 27.3752C75.0448 27.034 74.8045 26.7368 74.6211 26.4197L81.1973 17.769C81.4049 18.0449 81.7006 18.2909 81.8072 18.6023C83.6329 23.9485 85.4416 29.299 87.2417 34.6538C88.9223 39.656 90.5774 44.6638 92.2779 49.6574C92.3917 49.9916 92.7884 50.2276 93.0529 50.512L93.0671 51.6466L93.2505 77.9883Z" fill="#57AE47"/>
<path fill-rule="evenodd" clip-rule="evenodd" d="M93.0529 50.5123C92.787 50.2294 92.3917 49.9933 92.2779 49.6578C90.5788 44.6641 88.9223 39.6563 87.2417 34.6541C85.443 29.2993 83.6315 23.9488 81.8072 18.6026C81.7006 18.2912 81.4049 18.0452 81.1973 17.7694C83.3358 15.6749 85.4074 13.5052 87.6327 11.5074C89.6105 9.73293 91.2002 7.83046 91.2741 5.02511L91.4305 4.46631L91.9936 5.88534C91.9793 6.60196 91.9154 7.32143 91.9623 8.03521C92.0433 9.27651 92.2438 10.5121 92.2993 11.7534C92.4031 14.064 92.4528 16.3788 92.4997 18.6922C92.5751 22.4146 92.6434 26.1385 92.6889 29.8624L92.8837 47.7126C92.8979 48.6468 92.996 49.5796 93.0529 50.5123Z" fill="#60B24F"/>
<path fill-rule="evenodd" clip-rule="evenodd" d="M90.4226 117.507C90.7084 116.079 91.0852 114.663 91.2615 113.22C91.6141 110.342 91.8573 107.45 92.1459 104.565L92.2184 104.553L92.2895 104.566C92.3637 108.176 92.8721 111.764 93.8038 115.253C93.6119 115.506 93.3431 115.729 93.2408 116.014C92.4516 118.24 91.7065 120.485 90.9131 122.711C90.8051 123.015 90.5008 123.252 90.2889 123.518L89.4771 120.731L90.4226 117.507Z" fill="#A9AA88"/>
<path fill-rule="evenodd" clip-rule="evenodd" d="M90.2888 123.52C90.5007 123.252 90.805 123.016 90.913 122.712C91.7064 120.487 92.4515 118.242 93.2406 116.015C93.3416 115.731 93.6117 115.507 93.8037 115.254L95.1673 118.246C94.8985 118.627 94.526 118.973 94.3767 119.398L91.7661 127.064C91.6581 127.373 91.2927 127.589 91.0453 127.849L90.2888 123.52Z" fill="#B6B598"/>
<path fill-rule="evenodd" clip-rule="evenodd" d="M91.0452 127.848C91.2912 127.588 91.658 127.372 91.7661 127.063L94.3766 119.396C94.5245 118.971 94.8984 118.626 95.1672 118.245L96.4867 119.369C95.8497 119.999 95.4956 120.727 95.7089 121.647L95.3079 122.96C95.1259 123.184 94.8615 123.38 94.7719 123.638C93.8605 126.248 92.9917 128.873 92.0732 131.482C91.9566 131.812 91.6338 132.072 91.4077 132.365L91.0452 127.848Z" fill="#C2C1A7"/>
<path fill-rule="evenodd" clip-rule="evenodd" d="M91.4064 132.364C91.6339 132.071 91.9566 131.811 92.0718 131.481C92.9903 128.872 93.8605 126.247 94.7705 123.636C94.8601 123.379 95.1246 123.184 95.3066 122.958L94.7535 128.981C94.6056 129.152 94.3923 129.301 94.3212 129.499L92.4813 134.771C92.3519 135.131 92.1045 135.452 91.9111 135.789C91.7391 135.564 91.432 135.347 91.4177 135.114C91.3637 134.201 91.4021 133.281 91.4064 132.364Z" fill="#CECDB7"/>
<path fill-rule="evenodd" clip-rule="evenodd" d="M91.9126 135.79C92.106 135.453 92.3534 135.132 92.4828 134.772L94.3227 129.5C94.3938 129.301 94.6085 129.153 94.7549 128.982L94.7691 132.935L93.4454 136.329L91.9126 135.79Z" fill="#DBDAC7"/>
<path fill-rule="evenodd" clip-rule="evenodd" d="M93.4453 136.33L94.7691 132.936L95.0421 136.951L93.4453 136.33Z" fill="#EBE9DC"/>
<path fill-rule="evenodd" clip-rule="evenodd" d="M95.7076 121.647C95.4958 120.728 95.8484 120 96.4854 119.369L96.8522 119.619L95.7076 121.647Z" fill="#CECDB7"/>
<path fill-rule="evenodd" clip-rule="evenodd" d="M92.2894 104.568L92.2183 104.555L92.1458 104.566L92.315 103.959L92.2894 104.568Z" fill="#4FAA41"/>
</svg>
